ply
format ascii 1.0 
element vertex 993
property float32 x 
property float32 y 
property float32 z
property uchar red  
property uchar green
property uchar blue
element face 0
property list uchar int vertex_indices
end_header
-1.48941 0.871404 2.57353 133 128 125
-1.47857 0.900311 2.57505 135 135 133
-1.47857 0.900311 2.57505 135 135 133
-1.4733 0.96187 2.56717 95 93 80
-1.48062 0.866456 2.58034 204 204 196
-1.47883 0.882803 2.57811 203 198 194
-1.47957 0.862948 2.58161 200 197 190
-1.4771 0.871152 2.58072 205 200 194
-1.47527 0.883894 2.58014 206 203 196
-1.46612 0.997126 2.56512 93 85 72
-1.4745 0.880749 2.58175 203 202 197
-1.47696 0.835923 2.58751 68 69 53
-1.47696 0.835923 2.58751 68 69 53
-1.47461 0.854052 2.58528 186 188 177
-1.47102 0.895736 2.57931 194 189 183
-1.47552 0.835306 2.58977 58 56 44
-1.4693 0.839258 2.59144 108 104 92
-1.47604 0.809637 2.60736 110 107 92
-1.46162 0.911358 2.58412 205 208 201
-1.44668 1.02621 2.57231 114 109 106
-1.4665 0.825057 2.60798 85 82 67
-1.4487 0.991725 2.57695 187 180 172
-1.44631 1.01026 2.57513 182 168 165
-1.44631 1.01026 2.57513 182 168 165
-1.44631 1.01026 2.57513 182 168 165
-1.46424 0.825966 2.61083 91 84 76
-1.44799 0.956984 2.58379 125 139 124
-1.44799 0.956984 2.58379 125 139 124
-1.45406 0.858562 2.59704 91 88 73
-1.44662 0.92415 2.58996 122 120 108
-1.44574 0.930743 2.58855 124 118 106
-1.45894 0.827714 2.61392 112 111 106
-1.4495 0.854918 2.60006 99 92 82
-1.45038 0.834269 2.60316 117 113 104
-1.43907 0.899882 2.59815 93 89 78
-1.43907 0.899882 2.59815 93 89 78
-1.4283 0.996655 2.58786 111 101 91
-1.43566 0.834924 2.61242 138 138 136
-1.42689 0.925228 2.60172 127 120 114
-1.41868 0.971231 2.59858 103 94 89
-1.42791 0.837729 2.61563 121 117 106
-1.42212 0.8777 2.61264 131 132 124
-1.47581 0.552358 2.71434 211 210 205
-1.42357 0.835463 2.61877 119 117 105
-1.41894 0.879314 2.61363 123 125 114
-1.41951 0.86912 2.61473 123 119 108
-1.46522 0.673228 2.70006 205 204 200
-1.49584 0.235955 2.75678 197 187 186
-1.44963 0.774491 2.67544 128 136 123
-1.40453 1.03891 2.59356 84 81 66
-1.41218 0.910085 2.6119 124 124 114
-1.40924 0.927805 2.61079 128 129 124
-1.40924 0.927805 2.61079 128 129 124
-1.42021 0.833284 2.63527 146 148 145
-1.41018 0.884878 2.61719 122 118 109
-1.41018 0.884878 2.61719 122 118 109
-1.40355 0.91729 2.6159 114 116 105
-1.39605 1.01129 2.60416 130 130 130
-1.39605 1.01129 2.60416 130 130 130
-1.40338 0.881559 2.62164 140 139 135
-1.4804 0.242804 2.76554 209 208 206
-1.43097 0.780657 2.67781 201 201 199
-1.39929 0.899819 2.62092 136 137 132
-1.40159 0.837942 2.62918 137 137 127
-1.40159 0.837942 2.62918 137 137 127
-1.43514 0.756517 2.69249 205 197 194
-1.39512 0.937204 2.61755 121 120 115
-1.40034 0.843925 2.63002 129 127 115
-1.40682 0.82949 2.64336 167 166 164
-1.40827 0.810466 2.64648 184 178 178
-1.4042 0.83592 2.643 167 166 164
-1.39759 0.839034 2.63231 165 165 165
-1.39615 0.841559 2.63413 168 167 163
-1.49787 -0.180079 2.82831 104 109 105
-1.3823 1.01675 2.61175 102 96 84
-1.39293 0.840895 2.63391 193 190 185
-1.39559 0.82963 2.65042 213 209 206
-1.46032 0.225376 2.78093 122 116 102
-1.46032 0.225376 2.78093 122 116 102
-1.38364 0.857797 2.63646 201 200 196
-1.43924 0.598113 2.7437 214 213 208
-1.42992 0.627644 2.72848 77 82 75
-1.38214 0.842253 2.64057 214 210 207
-1.46683 -0.0291331 2.80271 25 27 22
-1.37203 0.980875 2.6235 123 113 112
-1.45327 0.184871 2.79136 124 118 106
-1.45327 0.184871 2.79136 124 118 106
-1.36511 1.00505 2.62322 141 140 138
-1.46221 0.0226701 2.81164 51 57 45
-1.45213 0.175788 2.79392 135 132 127
-1.38126 0.827 2.65765 32 32 32
-1.41904 0.649228 2.73267 41 39 40
-1.37087 0.883661 2.64006 212 209 204
-1.46602 -0.252054 2.82659 221 227 239
-1.41593 0.666169 2.73284 227 228 220
-1.37035 0.843299 2.64704 60 62 57
-1.35389 1.04053 2.62105 126 127 122
-1.36141 0.924375 2.63887 190 180 168
-1.35602 0.991359 2.63067 156 157 159
-1.39422 0.77768 2.70518 217 217 215
-1.39422 0.77768 2.70518 217 217 215
-1.39723 0.771714 2.71144 217 217 215
-1.44525 -0.0805842 2.80847 92 94 93
-1.36092 0.88545 2.64541 217 216 214
-1.44153 -0.0409994 2.80425 34 39 35
-1.35186 0.991841 2.63392 160 154 158
-1.36717 0.82916 2.66562 33 38 31
-1.40226 0.676301 2.73607 214 214 212
-1.3555 0.903831 2.64605 214 214 212
-1.43647 -0.00309945 2.81078 33 33 31
-1.36313 0.83601 2.66854 21 19 24
-1.43409 -0.0410499 2.80924 26 31 24
-1.3598 0.838479 2.66984 32 33 35
-1.39851 0.632535 2.74705 202 196 196
-1.43667 0.0381747 2.82205 56 56 48
-1.34038 1.01955 2.63534 138 138 136
-1.42585 -0.0265573 2.8036 34 34 34
-1.35102 0.84353 2.65782 30 35 29
-1.35654 0.836098 2.67194 30 32 31
-1.42568 -0.0109392 2.80893 27 23 22
-1.33783 1.01827 2.63665 141 141 141
-1.33783 1.01827 2.63665 141 141 141
-1.42668 0.00281244 2.81994 26 24 25
-1.39691 0.0138112 2.76171 32 28 25
-1.42769 -0.16884 2.83401 107 113 111
-1.38214 0.68019 2.74643 215 214 210
-1.40599 0.323979 2.79394 105 106 92
-1.3945 0.476538 2.77454 178 190 178
-1.38901 0.546839 2.76618 216 213 208
-1.34443 0.836679 2.67781 31 37 27
-1.39984 0.375808 2.78896 193 193 193
-1.37825 0.703194 2.74633 218 219 214
-1.32667 1.0193 2.64396 135 137 136
-1.38653 0.548899 2.76686 213 214 209
-1.41923 -0.271184 2.83564 217 227 237
-1.39658 0.375387 2.79133 199 198 194
-1.40705 0.279062 2.81277 51 54 45
-1.37645 0.669802 2.75263 217 213 210
-1.33245 0.858938 2.665 37 39 36
-1.4133 0.0216424 2.82694 22 21 19
-1.4133 0.0216424 2.82694 22 21 19
-1.32502 0.979536 2.65119 198 192 194
-1.33691 0.210833 2.67931 213 209 206
-1.31895 1.03955 2.64483 139 137 138
-1.40383 -0.0553327 2.82171 41 41 39
-1.40383 -0.0553327 2.82171 41 41 39
-1.3307 0.838754 2.6847 45 46 41
-1.39974 0.0142535 2.83516 26 28 23
-1.39974 0.0142535 2.83516 26 28 23
-1.31222 0.928904 2.66542 204 201 192
-1.39593 0.105917 2.83573 122 122 122
-1.38546 0.264567 2.816 6 13 6
-1.30835 0.975261 2.66087 40 42 39
-1.39382 -0.144235 2.83817 147 147 147
-1.39667 -0.271924 2.84716 218 226 237
-1.39396 -0.136209 2.84561 146 144 145
-1.30076 0.993645 2.66226 152 152 152
-1.40768 -0.37982 2.88707 217 223 237
-1.38462 -0.0925122 2.84143 124 128 129
-1.30322 0.888592 2.67695 215 211 208
-1.38508 -0.141538 2.84539 145 147 146
-1.30899 0.839173 2.69787 75 64 62
-1.30487 0.838271 2.70043 215 211 210
-1.37815 -0.144714 2.85272 148 148 148
-1.2875 1.01897 2.666 102 115 108
-1.35521 0.403366 2.80861 216 217 211
-1.29215 0.923107 2.67921 212 208 205
-1.34497 0.539217 2.79183 139 128 124
-1.29022 0.927617 2.67845 213 212 208
-1.29022 0.927617 2.67845 213 212 208
-1.34213 0.602959 2.78994 214 216 205
-1.28599 0.969248 2.67448 172 171 167
-1.35393 0.450748 2.81681 129 130 122
-1.37223 0.139717 2.85492 177 177 175
-1.36156 0.218489 2.83578 227 226 221
-1.33967 0.553303 2.79156 158 153 150
-1.3706 -0.146786 2.85667 147 149 148
-1.28478 0.947961 2.6788 209 206 201
-1.36448 0.106543 2.85128 136 134 137
-1.2842 0.912183 2.68536 214 214 214
-1.36581 -0.273615 2.86538 218 227 236
-1.27401 1.02492 2.67327 125 147 135
-1.35878 0.0238779 2.85564 26 27 29
-1.35878 0.0238779 2.85564 26 27 29
-1.27328 0.990036 2.6778 35 35 35
-1.27115 1.02442 2.67475 29 27 30
-1.26975 1.038 2.67273 22 24 19
-1.2756 0.918535 2.68841 213 212 208
-1.27273 0.907261 2.69159 213 213 211
-1.35249 0.00980529 2.86068 39 40 34
-1.27461 0.867411 2.69667 215 214 210
-1.27461 0.867411 2.69667 215 214 210
-1.30909 0.731945 2.77971 109 107 92
-1.30909 0.731945 2.77971 109 107 92
-1.31405 0.628661 2.79375 219 215 212
-1.26721 0.911207 2.69432 213 213 211
-1.26205 0.990162 2.68392 175 175 175
-1.30729 0.734544 2.78017 114 105 96
-1.33845 0.203663 2.84808 227 228 223
-1.34002 -0.0524449 2.8548 44 45 47
-1.34259 0.0406467 2.86086 39 41 36
-1.26744 0.852239 2.70358 169 153 154
-1.2654 0.861328 2.70316 212 206 206
-1.25678 0.978365 2.68932 189 189 189
-1.25678 0.978365 2.68932 189 189 189
-1.26634 0.819751 2.72553 140 136 127
-1.33177 -0.0216375 2.86864 42 48 46
-1.33131 0.0239372 2.8698 21 24 15
-1.25612 0.854548 2.70883 115 105 95
-1.28968 0.762854 2.78217 215 214 212
-1.25337 0.870364 2.7087 106 100 88
-1.25455 0.844067 2.71328 133 130 121
-1.24344 0.993279 2.69411 155 167 153
-1.24986 0.873139 2.71005 133 128 122
-1.32342 -0.0331719 2.87064 45 45 45
-1.24939 0.867618 2.7106 135 130 124
-1.29943 0.501658 2.82298 222 221 217
-1.24722 0.883572 2.71003 132 129 120
-1.24646 0.866419 2.71288 129 131 118
-1.32461 -0.193899 2.89069 103 104 99
-1.23831 0.919845 2.70883 130 123 113
-1.29739 0.328226 2.84429 161 161 161
-1.23775 0.896781 2.7137 216 213 208
-1.31734 -0.195275 2.88937 104 103 99
-1.23555 0.849179 2.72056 185 186 178
-1.23555 0.849179 2.72056 185 186 178
-1.23129 0.906136 2.71464 215 214 209
-1.23129 0.906136 2.71464 215 214 209
-1.23197 0.845991 2.72509 126 123 118
-1.30956 -0.248884 2.89801 217 224 234
-1.22619 0.920989 2.71601 213 214 209
-1.28308 0.40824 2.84726 221 221 221
-1.25756 0.772722 2.79484 216 217 212
-1.22533 0.851416 2.72592 210 211 206
-1.29606 0.153782 2.88348 195 194 192
-1.21921 0.907744 2.72117 216 215 210
-1.2208 0.874542 2.72558 214 215 210
-1.28945 0.154606 2.88487 195 195 193
-1.22623 0.84457 2.74538 207 207 205
-1.22329 0.850148 2.74075 125 127 124
-1.21932 0.847502 2.73294 136 136 134
-1.28603 0.163579 2.88468 202 200 201
-1.27476 0.451715 2.85973 116 121 115
-1.20581 1.02535 2.71033 210 210 208
-1.20514 1.03331 2.7097 210 210 208
-1.23911 0.788972 2.78977 209 208 204
-1.25018 0.728869 2.81571 211 214 203
-1.214 0.845808 2.73533 173 168 172
-1.20518 0.994293 2.71582 212 213 208
-1.20641 0.965896 2.71941 179 177 180
-1.20268 1.03554 2.71111 212 211 206
-1.21682 0.854471 2.74335 134 134 132
-1.2128 0.851993 2.73471 145 144 140
-1.25044 0.702089 2.8201 218 217 213
-1.23553 0.792546 2.78696 145 151 139
-1.21234 0.848476 2.73537 158 156 157
-1.25024 0.750544 2.82141 160 161 153
-1.26058 0.482585 2.84782 150 151 146
-1.25761 0.546647 2.84241 219 218 214
-1.26042 0.494919 2.8492 216 215 211
-1.25004 0.66899 2.82639 221 222 216
-1.24561 0.718895 2.81986 168 171 162
-1.2491 0.656205 2.82806 217 219 216
-1.26766 0.332182 2.87029 164 166 165
-1.20678 0.860211 2.73577 118 113 107
-1.2757 0.148267 2.89323 182 184 181
-1.25943 0.410312 2.86125 220 221 216
-1.26958 0.226501 2.88463 229 231 226
-1.28497 -0.0734332 2.9253 99 107 110
-1.28497 -0.0734332 2.9253 99 107 110
-1.24568 0.575661 2.84133 190 187 182
-1.28491 -0.125719 2.93276 154 156 155
-1.19332 0.887202 2.74013 210 211 206
-1.19991 0.845442 2.75916 212 213 208
-1.26683 -0.260727 2.9154 203 213 215
-1.19047 0.881923 2.74198 214 213 209
-1.19047 0.881923 2.74198 214 213 209
-1.18801 0.877322 2.74294 209 210 205
-1.17595 1.03819 2.72511 212 213 207
-1.17691 0.954859 2.73731 181 170 176
-1.26863 -0.249208 2.95063 195 196 188
-1.23778 0.745744 2.87973 157 145 145
-1.16984 1.00776 2.73277 207 210 203
-1.17391 0.926472 2.74467 131 122 117
-1.17658 0.853734 2.7539 211 210 206
-1.16919 0.951272 2.74284 213 219 209
-1.17763 0.836965 2.77163 142 144 139
-1.15601 0.946314 2.75082 215 214 210
-1.14511 1.01449 2.74546 213 209 206
-1.14552 1.00986 2.74658 215 214 210
-1.23832 -0.0217079 3.00766 47 47 45
-1.19569 0.754412 2.915 235 239 251
-1.20331 0.612729 2.93414 206 205 201
-1.1954 -0.184485 3.05102 206 207 202
-1.13209 -0.174074 3.08798 202 202 192
-1.18108 -1.53209 3.63115 105 62 69
-0.97146 -0.192524 3.17038 210 207 202
-0.953217 -0.179652 3.17433 205 204 199
-0.945469 -0.228004 3.16718 204 203 198
-0.937293 -0.165384 3.18956 194 191 184
-0.932603 -0.17291 3.19091 194 195 187
-0.926511 -0.200528 3.19283 208 208 200
-0.922856 -0.159853 3.19306 204 199 196
-0.899113 0.00616582 3.2138 29 29 27
-0.851139 0.18872 3.19265 202 202 202
-0.904725 -1.38966 3.41615 40 40 28
-0.897348 -1.37932 3.414 25 29 15
-0.854062 -0.39472 3.27885 210 209 205
-0.828534 0.157142 3.196 163 163 163
-0.811078 0.616698 3.13885 136 137 132
-0.836174 -0.187203 3.2444 208 209 204
-0.801492 0.785991 3.12099 33 29 17
-0.820316 -0.0156447 3.22868 42 48 46
-0.81201 0.175735 3.21203 186 186 186
-0.812982 -0.177048 3.2513 210 209 205
-0.799773 -0.0167205 3.23955 41 42 36
-0.803075 -0.154603 3.26209 194 199 193
-0.788811 -0.128144 3.26485 154 156 153
-0.787219 -0.185487 3.26268 211 210 206
-0.781305 -0.227859 3.25069 211 210 205
-0.767739 0.139584 3.23212 145 147 146
-0.773329 -0.009189 3.26807 44 45 40
-0.772503 -0.166692 3.27536 208 207 203
-0.760811 0.131465 3.23428 146 144 147
-0.770337 -0.358181 3.29679 215 212 207
-0.758671 -0.226156 3.26238 211 210 205
-0.732363 0.756915 3.15366 16 18 13
-0.69381 1.0129 2.98805 27 28 22
-0.731533 0.770008 3.15272 16 19 10
-0.747513 0.296459 3.22194 31 33 28
-0.750581 0.142938 3.24169 147 148 150
-0.730491 0.777038 3.16315 21 23 12
-0.76863 -1.133 3.34928 126 128 123
-0.768252 -1.13238 3.34762 126 128 123
-0.752058 -0.32222 3.289 221 218 211
-0.741574 -0.266531 3.26668 206 201 195
-0.730707 -0.0980467 3.22773 142 142 142
-0.707438 0.398416 3.16115 175 177 174
-0.717368 0.0345405 3.21529 27 29 24
-0.75086 -1.11701 3.37094 21 23 18
-0.674232 0.246782 3.20343 225 225 223
-0.663783 0.400623 3.18213 174 176 173
-0.65947 0.507543 3.16816 230 230 228
-0.657949 0.52403 3.16532 226 227 222
-0.65775 0.527385 3.16475 242 244 241
-0.700864 -1.08842 3.39969 35 35 33
-0.687961 -0.754518 3.35372 210 209 204
-0.574431 0.380858 3.13967 178 179 173
-0.586098 -1.23809 3.20584 0 15 12
-0.579937 -1.23242 3.21288 19 15 12
-0.579965 -1.22018 3.21583 126 119 126
-0.524913 0.463172 2.95166 229 230 225
-0.519295 0.583629 2.93615 21 24 13
-0.521178 0.484977 2.94901 231 232 227
-0.521465 0.471065 2.95202 225 230 226
-0.514396 0.602937 2.93491 31 32 18
-0.512392 0.66607 2.92551 6 11 5
-0.513313 0.619032 2.93231 34 36 22
-0.510712 0.689056 2.92268 22 22 14
-0.50848 0.740299 2.91624 16 15 11
-0.507423 0.779674 2.91042 16 22 10
-0.512123 0.57457 2.94149 22 21 16
-0.50492 0.78215 2.91087 30 32 19
-0.50281 0.843726 2.90151 23 25 12
-0.506692 0.670508 2.92711 8 16 5
-0.499184 0.917115 2.89226 19 22 15
-0.495425 0.997028 2.87893 17 18 10
-0.49584 0.938149 2.88907 17 19 14
-0.498731 0.829866 2.90664 37 35 23
-0.496056 0.913805 2.89339 21 24 17
-0.494855 0.941077 2.88973 16 18 15
-0.496977 0.849113 2.90469 37 34 19
-0.491356 1.04294 2.87337 13 18 11
-0.504039 0.550384 2.94972 221 222 216
-0.491162 1.01897 2.87836 16 19 8
-0.489999 1.03545 2.87595 13 14 9
-0.49245 0.882877 2.90138 37 34 19
-0.487095 1.0401 2.87722 11 17 7
-0.486567 1.05481 2.87448 15 18 11
-0.496978 0.616812 2.94236 20 23 12
-0.496978 0.616812 2.94236 20 23 12
-0.481755 1.05795 2.87616 11 16 9
-0.487104 0.817258 2.91546 39 36 21
-0.486933 0.793035 2.92013 14 16 11
-0.486933 0.793035 2.92013 14 16 11
-0.483132 0.817337 2.918 50 47 28
-0.493023 0.40831 2.97814 197 197 197
-0.484106 0.583056 2.95481 22 23 15
-0.483885 0.571648 2.95734 24 31 24
-0.5398 -1.42307 3.30292 12 13 7
-0.479 0.73397 2.93361 9 14 8
-0.476625 0.779928 2.92674 18 19 11
-0.472569 0.844327 2.91885 22 24 13
-0.480378 0.468557 2.97259 226 228 227
-0.474779 0.694449 2.94116 13 16 5
-0.463949 1.05687 2.88501 21 24 15
-0.489819 0.361399 3.04695 177 176 172
-0.467327 0.797704 2.92833 18 24 14
-0.473078 0.531542 2.96961 221 222 216
-0.466076 0.791744 2.93038 30 32 21
-0.460053 0.828881 2.92848 36 37 21
-0.456899 0.848126 2.92622 13 19 7
-0.454628 0.904479 2.91806 36 33 18
-0.453424 0.922667 2.91601 35 29 17
-0.449827 0.968211 2.91098 46 46 22
-0.450037 0.847593 2.93069 34 35 19
-0.447781 0.851667 2.93174 32 35 18
-0.451068 0.613282 2.97259 16 19 10
-0.447754 0.74295 2.95468 10 12 9
-0.460385 0.352619 3.04729 175 174 169
-0.443929 0.807495 2.94233 26 29 20
-0.445798 0.686547 2.96341 12 13 7
-0.446721 0.611282 2.97615 9 14 7
-0.439177 0.863704 2.9328 23 25 11
-0.435297 1.04316 2.90733 13 15 10
-0.440782 0.666248 2.96984 11 10 5
-0.437388 0.726098 2.96287 7 12 6
-0.439987 0.547882 2.98889 221 220 216
-0.440464 0.491866 2.99315 232 231 229
-0.435152 0.693001 2.96882 4 9 3
-0.440464 0.404114 3.00733 185 189 188
-0.427882 0.961608 2.9235 69 75 65
-0.427882 0.961608 2.9235 69 75 65
-0.436376 0.505331 2.99378 241 243 242
-0.372592 1.00647 2.56019 13 18 14
-0.43421 0.547884 2.99159 221 222 216
-0.425846 0.851122 2.94222 36 37 23
-0.432871 0.524802 2.99194 92 73 59
-0.432751 0.550803 2.99167 221 222 216
-0.425324 0.818969 2.94897 24 25 17
-0.430606 0.567121 2.98872 223 222 218
-0.41908 1.05993 2.90961 8 13 6
-0.477215 -1.42242 3.33463 17 22 15
-0.421335 0.821967 2.95157 6 11 5
-0.416544 0.848524 2.95058 13 16 9
-0.425039 0.409345 3.01485 190 190 190
-0.421915 0.540444 2.99507 221 222 217
-0.423635 0.473766 3.00767 228 228 228
-0.419326 0.442861 3.01173 213 213 211
-0.416174 0.635818 2.99521 13 14 8
-0.407661 0.8948 2.94651 22 22 10
-0.405721 0.853292 2.95487 11 14 5
-0.410256 0.566809 3.00328 221 222 217
-0.40455 0.777409 2.97134 18 19 11
-0.397156 1.06184 2.92225 6 11 5
-0.405003 0.54931 3.00693 219 221 216
-0.450085 -1.42025 3.35113 19 20 14
-0.4024 0.555017 3.00797 220 221 216
-0.395821 0.812898 2.96507 32 35 26
-0.393996 0.855063 2.95964 23 20 11
-0.393996 0.855063 2.95964 23 20 11
-0.39987 0.573728 3.00749 221 222 217
-0.393293 0.811176 2.96798 25 27 16
-0.397687 0.564231 3.01026 219 220 215
-0.390137 0.853687 2.96283 11 14 7
-0.387584 0.886017 2.95891 19 22 13
-0.390613 0.735964 2.99332 44 43 25
-0.384653 0.942939 2.95009 9 16 9
-0.435174 -1.42028 3.35854 23 24 16
-0.383742 0.848988 2.96491 12 18 8
-0.391247 0.45945 3.02532 222 223 218
-0.383933 0.776032 2.98301 12 17 11
-0.377524 1.06081 2.93353 14 13 8
-0.382861 0.742093 2.99658 46 47 29
-0.385692 0.508225 3.02031 231 231 229
-0.381743 0.668256 3.00877 18 19 11
-0.382418 0.52509 3.01763 95 92 85
-0.38031 0.721707 3.00314 27 29 16
-0.378181 0.583621 3.02378 221 222 217
-0.376626 0.652174 3.01354 29 31 20
-0.373974 0.698017 3.00792 40 39 21
-0.369409 0.850395 2.97231 12 18 6
-0.415695 -1.31592 3.35339 41 42 36
-0.375282 0.476283 3.03039 227 228 223
-0.364255 1.02761 2.94661 12 14 9
-0.370521 0.749598 3.00072 45 42 27
-0.370891 0.42525 3.04199 198 198 198
-0.366862 0.672459 3.01642 47 48 30
-0.355475 1.04547 2.94867 15 18 11
-0.365469 0.476849 3.0361 227 228 223
-0.365977 0.422931 3.04336 194 194 192
-0.365977 0.422931 3.04336 194 194 192
-0.357341 0.697406 3.01777 20 23 12
-0.357839 0.563374 3.02763 221 222 217
-0.390518 -1.08063 3.30583 20 20 8
-0.355287 0.660034 3.02445 17 18 12
-0.351294 0.542514 3.03353 221 220 215
-0.344101 0.896752 2.98101 18 20 9
-0.349086 0.523316 3.03637 118 109 92
-0.348131 0.511151 3.04066 233 234 229
-0.344966 0.659528 3.02953 23 24 16
-0.338796 0.925798 2.97852 11 19 8
-0.344022 0.552557 3.03969 222 221 217
-0.342482 0.590272 3.04094 224 229 223
-0.340145 0.635417 3.03601 8 15 8
-0.335587 0.807193 3.00053 15 17 6
-0.332598 0.944828 2.97841 20 26 16
-0.332428 0.807533 3.00201 12 13 7
-0.332428 0.807533 3.00201 12 13 7
-0.326259 0.868156 2.99593 26 30 15
-0.330584 0.539568 3.04563 129 132 121
-0.328555 0.543856 3.04647 130 126 117
-0.327286 0.538929 3.04645 90 80 70
-0.325282 0.70656 3.03286 17 18 10
-0.325282 0.70656 3.03286 17 18 10
-0.32513 0.646384 3.04339 27 27 17
-0.329625 0.442501 3.09582 204 204 202
-0.323183 0.544334 3.04906 107 102 96
-0.321744 0.661401 3.04256 28 30 19
-0.317227 0.86128 3.00221 26 23 14
-0.320493 0.6876 3.03729 7 12 6
-0.319792 0.698586 3.03701 13 19 7
-0.319969 0.631049 3.04792 33 35 21
-0.34384 -1.09042 3.31212 69 70 62
-0.316608 0.490162 3.0606 231 230 225
-0.310424 0.872259 3.00326 35 36 22
-0.315326 0.422233 3.0724 192 193 188
-0.311539 0.631061 3.05309 20 23 12
-0.311672 0.555831 3.0584 218 219 214
-0.300697 1.06405 2.97536 9 17 6
-0.308987 0.597382 3.05824 39 44 37
-0.298682 1.0549 2.98164 7 12 6
-0.330389 -1.07045 3.30011 134 124 112
-0.302294 0.713556 3.04559 18 24 14
-0.302825 0.610537 3.06098 26 29 20
-0.292854 1.06621 2.98116 8 15 8
-0.299073 0.641265 3.05922 20 20 8
-0.297766 0.644058 3.05826 14 17 6
-0.306564 0.364812 3.19423 163 161 149
-0.306564 0.364812 3.19423 163 161 149
-0.289733 0.833598 3.0209 16 19 10
-0.292132 0.701595 3.05333 31 31 19
-0.294807 0.4089 3.08624 212 213 208
-0.292516 0.611931 3.06592 29 30 24
-0.292363 0.62285 3.06508 34 34 22
-0.292363 0.62285 3.06508 34 34 22
-0.293058 0.492676 3.07379 228 228 220
-0.293058 0.492676 3.07379 228 228 220
-0.293058 0.492676 3.07379 228 228 220
-0.290496 0.588801 3.07149 219 220 214
-0.290061 0.500455 3.07436 232 231 226
-0.285347 0.789119 3.03518 24 24 22
-0.284319 0.566525 3.06958 221 220 215
-0.284319 0.566525 3.06958 221 220 215
-0.283881 0.556297 3.07375 218 217 213
-0.281624 0.483182 3.08135 221 221 213
-0.280978 0.51465 3.07685 226 225 220
-0.277477 0.708251 3.06089 14 17 8
-0.275863 0.771492 3.04491 14 17 10
-0.271385 1.03561 2.99831 15 18 9
-0.268688 1.03839 2.99901 12 15 6
-0.272026 0.63851 3.07235 14 15 7
-0.279109 0.366425 3.17221 129 123 107
-0.265023 0.938611 3.01703 20 22 19
-0.270997 0.47964 3.08701 154 150 139
-0.268408 0.661506 3.0739 18 21 10
-0.268416 0.494874 3.08755 153 144 129
-0.265674 0.495857 3.08782 128 117 97
-0.264224 0.546431 3.08191 133 130 113
-0.260712 0.501476 3.08908 155 155 145
-0.287251 -1.41882 3.44381 49 46 37
-0.255951 0.698373 3.07576 14 17 8
-0.255951 0.698373 3.07576 14 17 8
-0.256143 0.548013 3.08544 144 141 134
-0.252394 0.670594 3.08157 13 18 11
-0.244671 0.592101 3.09715 188 196 199
-0.243922 0.516856 3.09723 161 157 154
-0.234007 1.06804 3.01133 29 24 18
-0.231691 0.72632 3.08469 10 12 7
-0.231691 0.72632 3.08469 10 12 7
-0.231191 0.530946 3.10256 169 168 166
-0.225895 0.897178 3.04735 15 18 9
-0.221826 1.0217 3.02745 11 14 7
-0.221826 1.0217 3.02745 11 14 7
-0.222833 0.692627 3.09537 12 18 8
-0.214394 0.530574 3.11243 171 173 168
-0.213673 0.572648 3.11325 150 151 143
-0.211089 0.709297 3.09885 15 18 11
-0.231768 -1.29661 3.44861 64 54 44
-0.206523 0.741437 3.09516 37 46 45
-0.203931 0.829112 3.07082 42 42 40
-0.205593 0.65604 3.11044 53 61 64
-0.200356 0.998283 3.04338 10 11 6
-0.201926 0.64705 3.112 57 65 67
-0.22063 -1.23886 3.40414 52 52 42
-0.201756 0.613845 3.11761 100 102 99
-0.200693 0.637295 3.11373 57 62 65
-0.200547 0.498368 3.12381 167 168 163
-0.19894 0.683493 3.10744 16 16 18
-0.196764 0.661274 3.11421 59 57 58
-0.194998 0.740645 3.09969 47 57 59
-0.190301 0.824174 3.0778 59 60 55
-0.190661 0.69736 3.11164 10 13 6
-0.189992 0.593318 3.12586 133 133 123
-0.188825 0.663536 3.11786 52 56 57
-0.185779 0.558856 3.12697 166 161 157
-0.184528 0.730205 3.10661 62 67 71
-0.181296 0.728794 3.11115 64 69 73
-0.181296 0.728794 3.11115 64 69 73
-0.180817 0.752047 3.10662 88 92 93
-0.180103 0.748103 3.10643 85 94 93
-0.175591 1.04842 3.04823 55 43 31
-0.17841 0.503986 3.13592 147 146 144
-0.17841 0.503986 3.13592 147 146 144
-0.17655 0.722629 3.11264 67 72 76
-0.193414 -1.25582 3.45121 26 31 27
-0.169925 0.562941 3.13444 164 161 154
-0.167782 0.705499 3.12165 12 17 11
-0.168511 0.520411 3.13894 159 160 154
-0.168511 0.520411 3.13894 159 160 154
-0.164985 0.488475 3.14615 165 165 157
-0.162901 0.613994 3.13542 160 160 158
-0.161412 0.484393 3.14983 167 168 163
-0.161412 0.484393 3.14983 167 168 163
-0.159933 0.597019 3.14361 167 164 159
-0.157956 0.622433 3.13804 14 14 14
-0.156912 0.539466 3.14181 174 175 169
-0.155398 0.679143 3.13126 99 108 113
-0.155395 0.671654 3.13157 58 73 70
-0.155902 0.60086 3.14222 170 169 167
-0.154312 0.718147 3.12633 75 77 72
-0.154646 0.589883 3.14236 166 165 161
-0.153327 0.759638 3.11699 146 151 155
-0.153327 0.759638 3.11699 146 151 155
-0.151063 0.729603 3.12501 145 146 150
-0.145908 0.757568 3.12045 120 123 128
-0.146531 0.592364 3.14404 161 162 156
-0.142344 0.751558 3.12091 106 109 114
-0.133807 0.566332 3.15592 158 157 152
-0.133698 0.576658 3.15485 176 177 171
-0.131694 0.55286 3.1538 162 167 163
-0.129558 0.634645 3.14705 24 24 24
-0.126639 0.558342 3.15872 61 52 47
-0.125231 0.706391 3.13906 9 11 8
-0.123167 0.780916 3.12753 24 26 21
-0.119076 0.644587 3.14605 37 39 34
-0.114873 0.725232 3.1364 19 20 15
-0.113524 0.768955 3.13011 24 26 23
-0.111297 0.79161 3.12776 25 25 25
-0.130936 -1.45903 3.71427 67 48 41
-0.10332 0.697565 3.14734 29 31 28
-0.103236 0.526723 3.17444 163 164 158
-0.0998471 0.81074 3.13041 14 14 12
-0.0953121 0.809931 3.13308 18 20 19
-0.0929078 0.668856 3.1559 15 21 17
-0.0826736 0.94451 3.11765 18 17 13
-0.0802478 1.07543 3.09537 24 26 21
-0.0799447 1.07206 3.09698 26 25 21
-0.0797392 0.554103 3.18218 147 147 139
-0.076059 1.07071 3.0986 29 23 23
-0.0857567 -1.55889 3.68148 12 12 12
-0.0812935 -1.54459 3.6838 14 16 13
-0.0779031 -0.198511 3.6547 82 78 66
-0.0131943 -1.22844 3.86926 57 63 53
-0.00518702 -1.22975 3.87512 78 71 61
-0.00413007 -1.30119 3.88699 63 60 53
-0.00138781 -1.32097 3.88891 63 54 47
0.00137877 -1.49875 3.79792 89 86 77
0.00165496 -1.25388 3.88224 21 20 15
0.00165496 -1.25388 3.88224 21 20 15
0.00514789 -1.2146 3.87589 93 86 78
0.0069512 -1.29542 3.89078 69 71 60
0.00745277 -1.30515 3.893 64 65 57
0.00821174 -1.2055 3.87748 90 83 75
0.00912444 -1.26084 3.88042 80 74 60
0.00929309 -1.28505 3.88855 90 91 83
0.0120595 -1.1968 3.87983 68 69 61
0.0125615 -1.21149 3.88007 120 116 107
0.0148761 -1.50487 3.79876 92 88 79
0.0183713 -1.30378 3.90022 56 57 51
0.018912 -1.29384 3.90047 56 55 50
0.0182838 -1.61485 3.74954 83 84 78
0.0193495 -1.25387 3.89001 53 54 48
0.023402 -1.30767 3.90316 57 56 54
0.0235427 -1.49864 3.81083 87 83 72
0.0350866 -1.52643 3.81316 94 86 73
0.0399537 -1.29247 3.90959 54 53 49
0.0423948 -1.32061 3.91668 60 61 56
0.0436526 -1.21159 3.89814 81 71 61
0.0453007 -1.19617 3.897 67 64 57
0.0460726 -1.22967 3.90403 78 69 64
0.0490566 -1.31797 3.92142 58 53 49
0.048844 -1.16425 3.89487 69 71 68
0.0541703 -1.23788 3.90855 69 70 62
0.0553847 -1.30994 3.9231 73 64 55
0.0560873 -1.3168 3.92359 70 67 58
0.0587668 -1.27783 3.9224 72 72 62
0.0600764 -1.28498 3.92319 71 71 63
0.0610695 -1.29493 3.92293 67 66 62
0.0610695 -1.29493 3.92293 67 66 62
0.0613818 -1.53396 3.82968 94 89 83
0.0638426 -1.26182 3.91962 65 66 61
0.0637824 -1.24861 3.91757 72 69 62
0.0625614 -1.49971 3.83538 98 96 83
0.0647035 -1.19888 3.90966 67 68 62
0.0667425 -1.28822 3.9242 69 64 58
0.0676678 -1.24219 3.91693 71 66 60
0.0680388 -1.21509 3.91327 71 71 63
0.0699385 -1.301 3.92801 67 68 60
0.07024 -1.31106 3.92916 66 66 56
0.0719884 -1.29623 3.92887 62 63 55
0.0757544 -1.34472 3.93693 62 63 55
0.0768301 -1.06629 3.88948 67 68 60
0.0781135 -1.29158 3.93069 57 54 47
0.0801846 -1.3349 3.93244 51 53 48
0.0821952 -1.53291 3.84148 96 98 87
0.0857575 -1.49648 3.84435 102 95 87
0.0896862 -1.58661 3.82177 102 95 85
0.098853 -1.3441 3.94972 60 59 54
0.131498 -1.54511 3.87032 117 111 99
0.136135 -1.54957 3.87188 118 115 108
0.152869 -1.54893 3.88242 122 114 103
0.152952 -1.53715 3.88161 120 115 109
0.152981 -1.48393 3.83176 118 116 104
0.155108 -1.50081 3.87701 118 116 104
0.186506 -1.14717 3.96634 26 23 14
0.196743 -1.34474 3.99362 55 54 49
0.193441 -1.58068 3.87101 119 109 97
0.193441 -1.58068 3.87101 119 109 97
0.199754 -1.49852 3.89804 115 113 101
0.202555 -1.60848 3.84997 116 112 103
0.20953 -1.14639 3.97824 64 57 49
0.267343 -1.49224 3.9452 119 115 106
0.286796 -1.05298 4.01564 155 153 138
0.293064 -1.49006 3.95849 82 83 78
0.30092 -1.19729 4.03474 153 143 134
0.29673 -1.48638 3.96856 89 88 83
0.299124 -1.49657 3.95605 89 91 86
0.30415 -0.942373 4.00012 146 134 120
0.30415 -0.942373 4.00012 146 134 120
0.305159 -1.03073 4.00277 159 151 140
0.305159 -1.03073 4.00277 159 151 140
0.311178 -0.961537 4.00273 138 131 121
0.313988 -0.988612 4.00416 148 139 132
0.315848 -1.5158 3.97112 87 86 82
0.323248 -1.2633 4.06302 147 143 134
0.324939 -1.19136 4.05092 152 148 137
0.323966 -0.921219 4.00495 113 104 95
0.340267 -1.25488 4.0707 149 149 141
0.332571 -1.49669 3.97229 74 75 70
0.34112 -1.54941 3.97006 72 75 66
0.351821 -1.29073 4.08226 142 137 131
0.352236 -1.31157 4.08499 136 125 119
0.346394 -1.00842 4.00085 103 96 88
0.35237 -1.49109 3.99355 45 45 45
0.362696 -1.14035 4.06515 117 104 95
0.373585 -1.20424 4.07854 112 104 91
0.369073 -0.949656 4.00971 104 101 94
0.378614 -1.30112 4.09635 120 113 103
0.378261 -1.17421 4.08099 131 131 121
0.383205 -1.48332 4.02395 90 81 76
0.383474 -0.946731 4.01869 132 133 127
0.38382 -0.966993 4.01282 129 124 120
0.392612 -1.18693 4.0895 115 114 109
0.394215 -1.23486 4.09795 94 95 89
0.394215 -1.23486 4.09795 94 95 89
0.389851 -0.952035 4.02251 118 117 112
0.389851 -0.952035 4.02251 118 117 112
0.399423 -1.20384 4.09882 113 114 109
0.405027 -1.48764 4.02264 141 137 128
0.404126 -1.57426 3.98497 66 66 66
0.404126 -1.57426 3.98497 66 66 66
0.43239 -1.48721 4.03521 124 121 112
0.443062 -1.29505 4.12301 113 116 107
0.453526 -1.48553 4.04433 102 103 97
0.456736 -1.04586 4.05183 105 107 106
0.48524 -1.48458 4.06466 115 108 102
0.517901 -1.00449 4.14073 111 107 104
0.517901 -1.00449 4.14073 111 107 104
0.525823 -1.33626 4.17229 120 121 116
0.515067 -1.54651 4.07312 107 89 85
0.541772 -1.52276 4.09517 116 116 108
0.5432 -1.48879 4.09005 116 116 108
0.554019 -1.49044 4.09454 115 108 100
0.558003 -1.54373 4.09482 109 116 108
0.56161 -1.48745 4.09781 101 104 97
0.572995 -1.48957 4.10556 111 108 101
0.576697 -1.50762 4.11429 113 114 109
0.576697 -1.50762 4.11429 113 114 109
0.577251 -1.4836 4.11198 104 103 98
0.593737 -1.34298 4.22604 121 122 117
0.612343 -1.23894 4.22092 112 113 108
0.613716 -1.25977 4.22153 103 103 95
0.613716 -1.25977 4.22153 103 103 95
0.604387 -1.48387 4.12518 98 94 91
0.624922 -1.30083 4.24229 118 119 111
0.627068 -1.26461 4.23084 120 121 113
0.629949 -1.25053 4.2316 119 121 110
0.636003 -1.28928 4.24138 100 105 99
0.64167 -1.27834 4.2415 119 119 109
0.642206 -1.25054 4.23549 133 129 120
0.643148 -1.26373 4.24132 116 117 111
0.642633 -1.4856 4.14353 108 108 98
0.660848 -1.21708 4.24368 113 115 110
0.65719 -1.08709 4.20851 111 114 103
0.665205 -1.22346 4.2461 113 112 108
0.665205 -1.22346 4.2461 113 112 108
0.66825 -1.21727 4.2467 125 127 122
0.66825 -1.21727 4.2467 125 127 122
0.671078 -1.29726 4.25863 104 105 97
0.669933 -1.22158 4.24712 116 115 111
0.669933 -1.22158 4.24712 116 115 111
0.670508 -1.16535 4.24062 121 124 115
0.672281 -1.18486 4.24442 117 118 112
0.667492 -0.86603 4.18667 129 118 100
0.681571 -1.31278 4.26814 105 104 99
0.681346 -1.3014 4.26655 98 103 97
0.681955 -1.16428 4.24705 131 131 123
0.694095 -1.27639 4.26427 102 98 95
0.698247 -1.2937 4.27287 127 124 115
0.694536 -1.14359 4.24994 101 102 94
0.690726 -1.05057 4.21704 111 111 111
0.7061 -1.22817 4.26859 104 112 101
0.719057 -1.24572 4.28331 122 122 114
0.72277 -1.49994 4.19203 101 98 91
0.72277 -1.49994 4.19203 101 98 91
0.736236 -1.47939 4.20432 87 87 77
0.827718 1.26536 4.71817 110 107 92
0.870825 1.11123 4.88638 121 117 108
0.795493 -1.90357 4.4077 47 50 43
0.76717 -1.47826 4.22418 102 96 84
0.789526 -1.30472 4.32581 133 129 118
0.791135 -1.26741 4.32498 99 99 87
0.79503 -1.26862 4.32498 107 101 87
0.795976 -1.29477 4.32883 113 103 94
0.79901 -1.31068 4.33262 116 104 92
0.796228 -1.23504 4.31549 115 111 100
0.800787 -1.30273 4.33436 112 104 93
0.800437 -1.27541 4.32742 114 106 95
0.800878 -1.26864 4.32861 114 104 92
0.800454 -1.25613 4.32566 118 110 99
0.77776 -1.56593 4.20155 99 89 77
0.803681 -1.21336 4.32136 119 111 100
0.80726 -1.29763 4.33633 107 105 93
0.795572 -1.46821 4.26589 103 97 85
0.80523 -1.17267 4.316 114 104 94
0.816301 -0.15966 4.36555 131 123 112
0.792879 -1.47607 4.23231 104 101 86
0.818878 -1.29841 4.3414 110 103 95
0.819048 -1.01154 4.31961 116 112 100
0.842466 -1.89754 4.44059 92 85 75
0.811355 -1.46954 4.26401 109 105 93
0.861225 -1.87577 4.45526 86 92 80
0.838575 -0.988633 4.30629 117 115 103
0.844688 -1.11836 4.33181 117 110 100
0.831217 -1.4786 4.25776 109 100 85
0.835581 -0.645778 4.25106 131 119 107
0.88474 -1.90358 4.45291 99 95 86
0.850683 -1.5925 4.21227 100 93 83
0.855058 -1.5889 4.19595 97 97 89
0.851664 0.967438 4.16047 111 108 99
0.886804 -0.971747 4.33091 123 115 104
0.859718 0.975675 4.19332 109 104 98
0.92807 -1.89681 4.49132 86 88 77
0.92807 -1.89681 4.49132 86 88 77
0.86996 -1.60143 4.16463 102 102 92
0.946123 -1.89619 4.48704 95 91 80
0.924957 -1.03952 4.36987 108 106 93
0.924957 -1.03952 4.36987 108 106 93
0.880317 -1.59811 4.15837 102 98 87
0.900679 -0.156097 4.21118 104 104 96
0.922891 -0.686534 4.30625 120 111 102
0.897582 -0.171389 4.18139 97 99 88
0.944025 -1.25874 4.39465 116 114 102
0.906351 -1.54683 4.21386 103 99 88
0.909826 -1.48247 4.22983 112 109 100
0.909826 -1.48247 4.22983 112 109 100
0.947761 -1.37229 4.36212 0 0 0
0.951 -0.816511 4.3401 0 0 0
0.989926 -1.89669 4.51135 0 0 0
0.93642 -0.255992 4.24687 0 0 0
0.962069 -1.04288 4.33486 0 0 0
1.00885 -1.89622 4.5278 0 0 0
1.00885 -1.89622 4.5278 0 0 0
0.969981 -1.0854 4.29612 0 0 0
0.983961 -1.16625 4.32825 0 0 0
0.971057 -0.411105 4.26515 0 0 0
0.985282 -1.04197 4.3196 0 0 0
0.977299 -0.435889 4.26934 0 0 0
0.980301 -0.453985 4.2671 0 0 0
0.98318 -0.311737 4.25445 0 0 0
1.05325 -1.89033 4.55113 0 0 0
0.990666 -0.432452 4.2575 0 0 0
1.0025 -0.28142 4.24913 0 0 0
1.02349 -1.02329 4.33498 0 0 0
0.962489 0.933151 4.07187 0 0 0
1.03174 -1.043 4.34839 0 0 0
0.992967 0.362654 4.18373 0 0 0
1.0734 -1.89979 4.50978 0 0 0
0.969224 0.947436 4.06938 0 0 0
0.997166 0.331771 4.18533 0 0 0
1.03639 -0.997041 4.34983 0 0 0
0.998597 -1.59411 4.18795 0 0 0
1.0396 -1.02719 4.34892 0 0 0
1.01276 0.214431 4.20718 0 0 0
1.08826 -1.90533 4.47895 0 0 0
1.01186 0.435009 4.16459 0 0 0
1.06204 -1.01017 4.3245 0 0 0
1.09779 -1.90761 4.46898 0 0 0
1.01304 0.837777 4.11193 0 0 0
0.934016 1.13471 3.79062 0 0 0
1.01388 0.820678 4.11072 0 0 0
1.02145 -1.59897 4.13336 0 0 0
1.01953 -1.62265 4.11471 0 0 0
1.10863 -1.9092 4.43404 0 0 0
1.05167 -1.48757 4.19827 0 0 0
1.07873 -1.49433 4.14917 0 0 0
1.12709 -0.890528 4.23818 0 0 0
1.10488 -1.53536 4.08855 0 0 0
1.1065 -1.56729 4.08517 0 0 0
1.11772 -1.50235 4.10182 0 0 0
1.13511 -1.42909 4.16515 0 0 0
1.14268 -1.16336 4.16867 0 0 0
1.14646 -1.43582 4.16864 0 0 0
1.16336 -1.37587 4.22998 0 0 0
1.12561 -1.52092 4.08864 0 0 0
1.1162 -1.58028 4.05133 0 0 0
1.16481 -1.29733 4.21265 0 0 0
1.14698 -1.19108 4.14572 0 0 0
1.15518 -1.17373 4.1544 0 0 0
1.1673 -1.38653 4.19762 0 0 0
1.16104 -1.10506 4.15732 0 0 0
1.19525 -1.3542 4.23705 0 0 0
1.2143 -1.35322 4.24901 0 0 0
1.21466 -1.00694 4.20427 0 0 0
1.29603 -1.90002 4.42936 0 0 0
1.29823 -1.84049 4.42269 0 0 0
1.3024 -1.90943 4.43226 0 0 0
1.30768 -1.91023 4.43138 0 0 0
1.31671 -1.89739 4.43912 0 0 0
1.31572 -1.82117 4.43194 0 0 0
1.33643 -1.83291 4.4443 0 0 0
1.34071 -1.90738 4.45126 0 0 0
1.29865 -1.35207 4.29827 0 0 0
1.19838 0.488168 3.9032 0 0 0
1.20271 0.465065 3.90221 0 0 0
1.3287 -1.33769 4.30661 0 0 0
1.33242 -1.28313 4.304 0 0 0
1.20949 0.463078 3.90441 0 0 0
1.30252 -1.55293 4.18818 0 0 0
1.21487 0.542125 3.89644 0 0 0
1.21957 0.835961 3.85307 0 0 0
1.34558 -1.494 4.2253 0 0 0
1.22161 0.956391 3.8355 0 0 0
1.21546 1.12264 3.81553 0 0 0
1.33427 -1.581 4.18713 0 0 0
1.22433 0.975259 3.83627 0 0 0
1.22191 1.08038 3.8214 0 0 0
1.35842 -1.49753 4.21939 0 0 0
1.22705 1.11654 3.8109 0 0 0
1.23794 0.955962 3.83917 0 0 0
1.46328 -1.90542 4.53 0 0 0
1.46328 -1.90542 4.53 0 0 0
1.41351 -1.34516 4.3559 0 0 0
1.38867 -1.48868 4.23951 0 0 0
1.39031 -1.49747 4.23393 0 0 0
1.3823 -1.62392 4.18045 0 0 0
1.44954 -1.37211 4.36979 0 0 0
1.47766 -1.30952 4.38888 0 0 0
1.36464 0.434986 4.04788 0 0 0
1.43022 -1.57449 4.23151 0 0 0
1.43022 -1.57449 4.23151 0 0 0
1.48882 -1.36221 4.40242 0 0 0
1.45378 -1.55009 4.27059 0 0 0
1.49376 -0.952616 4.36613 0 0 0
1.50251 -1.24956 4.38756 0 0 0
1.50251 -1.24956 4.38756 0 0 0
1.49248 -1.48873 4.29449 0 0 0
1.51507 -1.00252 4.34329 0 0 0
1.48098 -1.61447 4.22801 0 0 0
1.53171 -1.49238 4.31225 0 0 0
1.58402 -1.17664 4.38878 0 0 0
1.92458 -0.074261 4.74452 0 0 0
1.94814 -0.0673103 4.76102 0 0 0
2.09513 -0.45469 4.89483 0 0 0
2.11062 -0.381697 4.88342 0 0 0
2.09739 -0.195268 4.80852 0 0 0
2.11398 0.123892 4.8142 0 0 0
2.13067 0.0222952 4.83349 0 0 0
2.14155 0.0285994 4.82696 0 0 0
2.12075 -0.225578 4.7617 0 0 0
2.15891 -0.0694356 4.8083 0 0 0
2.22961 -0.354551 4.9129 0 0 0
2.23442 -0.330247 4.9222 0 0 0
2.1912 -0.0694625 4.8158 0 0 0
2.20212 -0.156597 4.76909 0 0 0
2.22459 -0.106465 4.81274 0 0 0
2.33535 -0.040042 4.86362 0 0 0
2.35394 -0.130328 4.89461 0 0 0
2.39824 0.500537 4.81031 0 0 0
4.41941 -1.48382 6.9799 0 0 0
4.41941 -1.48382 6.9799 0 0 0
4.42301 -1.48095 6.97116 0 0 0
