ply
format ascii 1.0 
element vertex 532
property float32 x 
property float32 y 
property float32 z
property uchar red  
property uchar green
property uchar blue
element face 0
property list uchar int vertex_indices
end_header
-1.52226 1.01791 2.57524 200 200 190
-1.5124 1.00302 2.58691 105 100 94
-1.51749 0.838633 2.61214 197 198 192
-1.51906 0.803783 2.63208 87 88 74
-1.49879 0.891421 2.61359 180 177 170
-1.50346 0.817603 2.62371 110 106 95
-1.48358 0.968436 2.61093 188 179 172
-1.49534 0.772782 2.67104 140 142 139
-1.5428 -0.0811152 2.804 108 109 104
-1.44466 0.957046 2.63716 129 128 126
-1.53742 -0.223796 2.83202 223 227 239
-1.43755 0.8947 2.64948 114 114 104
-1.42641 1.01476 2.63816 99 98 94
-1.46972 0.736088 2.72718 213 209 206
-1.4191 1.00795 2.64334 110 111 105
-1.5209 -0.189258 2.85439 108 113 109
-1.51331 -0.109762 2.84641 120 122 121
-1.50328 -0.33904 2.82847 220 226 238
-1.49123 0.212215 2.80842 119 121 107
-1.49123 0.212215 2.80842 119 121 107
-1.50985 -0.222083 2.8521 218 228 238
-1.49621 -0.0378867 2.82679 17 20 13
-1.4451 0.738383 2.74669 216 216 216
-1.44945 0.646483 2.76596 245 246 241
-1.40397 0.82175 2.6812 50 46 43
-1.40397 0.82175 2.6812 50 46 43
-1.38839 1.01687 2.65712 130 129 125
-1.4716 0.0265191 2.83939 58 60 55
-1.38941 0.8818 2.68163 210 210 208
-1.46576 -0.0124393 2.83515 33 33 31
-1.46277 -0.0500381 2.8315 47 49 44
-1.3932 0.816805 2.70342 30 30 28
-1.45472 -0.0353632 2.82759 32 32 30
-1.3844 0.821998 2.69214 30 35 28
-1.45493 -0.0487318 2.83811 43 43 41
-1.43733 0.309106 2.82369 107 103 92
-1.44696 0.138207 2.84323 187 190 183
-1.41804 0.580957 2.79365 214 214 206
-1.44825 -0.178898 2.85521 109 113 112
-1.41124 0.733971 2.78427 216 215 211
-1.44657 -0.274905 2.85658 219 225 237
-1.44009 -0.162331 2.86001 112 112 112
-1.36387 0.817459 2.72008 32 39 31
-1.36387 0.817459 2.72008 32 39 31
-1.43197 -0.151432 2.86058 145 147 146
-1.43197 -0.151432 2.86058 145 147 146
-1.42897 0.00454806 2.86038 29 29 27
-1.42897 0.00454806 2.86038 29 29 27
-1.42692 -0.115958 2.85933 132 136 137
-1.42692 -0.115958 2.85933 132 136 137
-1.42762 -0.139889 2.86137 141 143 142
-1.34718 0.817613 2.7316 48 50 47
-1.37603 -0.0103753 2.79162 11 12 7
-1.36865 0.0202625 2.78959 9 11 6
-1.36865 0.0202625 2.78959 9 11 6
-1.40727 -0.13972 2.87367 144 145 147
-1.37465 0.58425 2.82429 225 229 214
-1.39838 -0.153644 2.87968 148 150 149
-1.31184 1.01632 2.70457 152 153 155
-1.32128 0.827236 2.72812 213 214 209
-1.39276 0.000961323 2.8788 25 25 25
-1.39291 -0.277626 2.88727 219 225 237
-1.38597 0.156361 2.87487 210 210 208
-1.38809 -0.011189 2.88045 29 29 27
-1.42976 0.013314 2.96833 25 27 24
-1.34464 0.741808 2.8062 211 206 202
-1.29627 0.978177 2.721 164 165 167
-1.36911 -0.0610924 2.88111 44 46 43
-1.35426 0.38925 2.858 220 220 218
-1.28238 1.00177 2.72497 178 180 179
-1.36307 -0.00961681 2.89849 34 34 34
-1.36035 0.013832 2.89694 22 25 18
-1.28936 0.833276 2.74627 113 111 99
-1.28635 0.827387 2.74883 131 131 123
-1.35159 -0.0422628 2.89599 44 44 42
-1.34733 0.0977557 2.90463 130 134 133
-1.34662 -0.272037 2.90993 216 224 235
-1.33049 0.313375 2.87912 157 159 158
-1.34499 -0.201276 2.91304 104 106 105
-1.33109 0.314182 2.8844 160 162 161
-1.26479 0.824799 2.76256 213 214 209
-1.33634 -0.253654 2.92 217 223 235
-1.24533 0.830451 2.77192 124 124 122
-1.26844 0.771588 2.82415 204 205 199
-1.26844 0.771588 2.82415 204 205 199
-1.28284 0.682104 2.8564 219 218 214
-1.28331 0.729939 2.85889 162 162 154
-1.28914 0.528473 2.87638 219 220 215
-1.281 0.64744 2.86173 220 221 216
-1.28105 0.63764 2.86451 224 225 220
-1.30047 0.149951 2.92211 199 199 199
-1.3128 -0.0815684 2.95082 98 106 109
-1.3128 -0.0815684 2.95082 98 106 109
-1.31718 -0.202383 2.96675 163 163 163
-1.22991 0.872115 2.77321 213 208 204
-1.23209 0.824138 2.79671 211 212 206
-1.20232 0.829808 2.79281 210 211 205
-1.26699 -0.0314822 3.03573 48 47 43
-1.23528 0.593302 2.9718 205 204 202
-1.2339 0.592022 2.97249 208 207 205
-1.25445 -0.192565 3.06249 206 207 202
-1.24503 -0.181353 3.06481 204 205 200
-1.14383 -0.183838 3.12105 206 203 196
-1.13306 -0.212425 3.1228 131 123 112
-1.1321 -0.178979 3.12646 209 208 204
-1.03336 -0.182981 3.18152 210 207 200
-0.99751 -0.19972 3.19924 211 211 203
-0.983336 0.0661488 3.17295 20 22 17
-0.974129 -0.198172 3.21274 208 209 203
-0.958587 -0.180589 3.21921 200 197 190
-0.958587 -0.180589 3.21921 200 197 190
-0.956904 -0.211947 3.21896 209 208 203
-0.948483 -0.239802 3.20762 205 202 195
-0.948802 -0.167829 3.22313 204 201 196
-0.925892 -0.00479216 3.24771 28 30 27
-0.878433 -0.398397 3.30587 208 209 204
-0.855073 0.144088 3.23315 165 165 165
-0.861386 -0.194776 3.27509 209 208 204
-0.835191 0.591817 3.18332 221 222 224
-0.830793 0.765279 3.16964 27 27 19
-0.860456 -0.451443 3.3037 207 204 197
-0.847339 -0.0199578 3.26004 58 60 59
-0.921484 -1.33669 3.54978 13 16 7
-0.838778 0.162037 3.24934 185 185 185
-0.829885 -0.235129 3.26764 211 210 205
-0.825676 -0.0269921 3.27381 40 42 39
-0.828363 -0.163023 3.29417 199 201 198
-0.820559 -0.242261 3.27156 212 211 206
-0.817952 -0.0194764 3.28868 34 34 34
-0.81531 -0.0355772 3.27927 40 42 39
-0.817213 -0.176416 3.30112 207 208 203
-0.813948 -0.136859 3.29758 149 151 148
-0.812158 -0.193174 3.29493 211 210 206
-0.803052 0.0206165 3.27326 22 24 19
-0.793847 0.126375 3.27049 147 147 147
-0.797528 -0.174892 3.3078 207 208 203
-0.803065 -0.356234 3.33644 212 213 208
-0.794398 -0.362791 3.3256 214 213 208
-0.779576 0.126044 3.27818 145 145 145
-0.779576 0.126044 3.27818 145 145 145
-0.78313 -0.233238 3.29415 212 211 207
-0.760454 0.736857 3.20294 18 19 11
-0.78126 -0.315029 3.31743 207 212 208
-0.77615 -0.327202 3.31878 219 218 213
-0.765877 0.138526 3.27731 153 153 153
-0.7864 -1.08753 3.37089 123 124 119
-0.788397 -1.07819 3.38341 91 90 86
-0.765583 -0.272546 3.29674 202 199 194
-0.74538 0.757607 3.21462 13 18 12
-0.771513 -1.10297 3.38421 20 20 18
-0.604317 -1.21927 3.21505 1 13 9
-0.59778 0.365624 3.18221 174 176 171
-0.597463 0.366306 3.18491 174 176 171
-0.603507 -1.19439 3.23083 63 78 75
-0.598035 -1.20171 3.22529 152 140 140
-0.541721 0.484724 2.99025 99 102 93
-0.533353 0.660897 2.97013 11 16 9
-0.530393 0.748489 2.96059 38 38 26
-0.523531 0.839972 2.94603 37 37 25
-0.522076 0.810899 2.95509 38 38 26
-0.51654 0.991109 2.92957 13 16 7
-0.515166 1.02267 2.92512 17 20 13
-0.510756 1.02003 2.92934 14 17 10
-0.503888 0.826114 2.96373 31 32 18
-0.511916 0.346459 3.08863 178 177 172
-0.486879 0.456372 3.02414 226 228 225
-0.486879 0.456372 3.02414 226 228 225
-0.471881 0.837246 2.98096 37 38 24
-0.450446 0.94191 2.97553 50 50 38
-0.450446 0.94191 2.97553 50 50 38
-0.446311 0.394408 3.0582 188 190 187
-0.439528 0.483272 3.04738 231 232 227
-0.393495 0.763027 3.03987 19 22 13
-0.393495 0.763027 3.03987 19 22 13
-0.37854 0.5466 3.07463 220 221 216
-0.40834 -1.06673 3.31938 17 17 7
-0.410669 -1.3584 3.38745 21 22 16
-0.394352 -1.07665 3.31221 59 58 53
-0.341328 0.46842 3.10844 227 228 222
-0.371946 -1.30153 3.39096 58 60 49
-0.331782 0.538967 3.10679 219 220 215
-0.32133 1.04444 3.03317 13 16 9
-0.347871 -1.05676 3.31414 164 160 149
-0.355455 -1.32875 3.40375 52 48 37
-0.324925 0.472962 3.1137 209 208 203
-0.304069 0.549639 3.11847 220 219 214
-0.304069 0.549639 3.11847 220 219 214
-0.304429 -1.39589 3.45205 44 46 35
-0.263767 0.575047 3.14848 192 196 199
-0.262523 0.353652 3.21353 162 159 150
-0.262523 0.353652 3.21353 162 159 150
-0.276861 -1.34086 3.45424 50 46 37
-0.244824 0.878659 3.10591 18 19 13
-0.244824 0.878659 3.10591 18 19 13
-0.263177 -1.38656 3.47038 62 55 45
-0.260231 -1.29909 3.45651 41 35 23
-0.232421 0.555715 3.16379 152 153 147
-0.251021 -1.34062 3.47086 70 66 54
-0.249074 -1.27727 3.45964 63 57 43
-0.173212 0.661698 3.1853 128 129 131
-0.172485 0.572982 3.19545 171 172 167
-0.163642 0.739811 3.17725 109 117 120
-0.164362 0.575421 3.19775 160 161 156
-0.178146 -1.19272 3.46566 25 26 20
-0.150079 0.549325 3.21307 156 157 151
-0.150079 0.549325 3.21307 156 157 151
-0.143866 0.541546 3.21182 42 35 29
-0.148558 -1.43736 3.72727 72 49 41
-0.0832677 -1.48765 3.71275 126 131 135
-0.0832677 -1.48765 3.71275 126 131 135
-0.0161913 -1.47561 3.80834 88 88 80
-0.0163873 -1.23999 3.90296 26 23 14
-0.0163873 -1.23999 3.90296 26 23 14
-0.0148766 -1.26216 3.90545 68 66 54
-0.0126172 -1.20191 3.89892 105 103 91
-0.0126172 -1.20191 3.89892 105 103 91
-0.00955288 -1.24596 3.89905 101 101 91
-0.00576556 -1.18423 3.90211 70 67 60
0.00134148 -1.16232 3.89782 63 66 59
0.00150685 -1.2403 3.91207 53 52 47
0.0286747 -1.21603 3.92661 77 74 67
0.0408342 -1.26334 3.94267 71 73 62
0.0433879 -1.27992 3.94354 67 66 61
0.0461299 -1.24814 3.94097 62 65 56
0.0461031 -1.23489 3.93924 75 74 69
0.0455287 -1.47796 3.84955 100 96 85
0.0553902 -1.30584 3.95132 66 66 56
0.0606031 -1.1609 3.93555 73 69 60
0.0606031 -1.1609 3.93555 73 69 60
0.0796483 -1.5082 3.86229 104 100 91
0.142758 -1.50688 3.89719 120 116 107
0.146681 -1.55588 3.86423 118 111 101
0.169893 -1.13724 3.99306 25 24 20
0.174558 -1.53227 3.91006 114 110 101
0.179548 -1.32892 4.01457 56 55 50
0.176697 -1.55615 3.8831 118 109 100
0.176697 -1.55615 3.8831 118 109 100
0.218553 -1.00616 4.02969 169 162 152
0.283294 -1.03043 4.05261 161 157 146
0.299538 -1.4942 3.98669 82 81 77
0.308955 -0.91771 4.04104 112 108 99
0.313781 -1.29681 4.10084 139 135 124
0.313781 -1.29681 4.10084 139 135 124
0.308744 -0.976786 4.03026 130 127 118
0.308201 -1.4695 3.99026 79 75 72
0.31414 -0.983241 4.02956 124 120 111
0.324508 -1.52648 3.98405 69 70 65
0.321766 -1.58429 3.93673 76 77 72
0.335842 -1.27712 4.10695 149 142 134
0.335842 -1.27712 4.10695 149 142 134
0.336379 -1.29772 4.11018 129 125 116
0.336379 -1.29772 4.11018 129 125 116
0.331436 -1.00287 4.03442 104 94 84
0.340405 -1.2326 4.10602 134 130 121
0.34043 -1.22068 4.10385 134 135 127
0.36293 -1.28784 4.12223 123 114 105
0.35559 -1.46847 4.01906 69 55 52
0.366163 -1.26099 4.12401 141 132 123
0.361658 -0.94844 4.0477 140 141 135
0.360084 -1.58416 3.95916 69 70 65
0.377582 -1.17703 4.11943 94 96 91
0.383084 -1.35628 4.14936 99 99 91
0.384069 -1.19332 4.12725 112 113 108
0.38544 -1.23504 4.13207 95 98 91
0.38544 -1.23504 4.13207 95 98 91
0.379004 -1.47083 4.03458 100 87 81
0.389227 -1.46768 4.0403 148 141 131
0.388192 -1.5509 3.9995 70 71 66
0.388192 -1.5509 3.9995 70 71 66
0.416855 -1.46819 4.05508 125 126 118
0.427868 -1.28238 4.15038 112 112 104
0.428569 -1.01205 4.08967 108 111 104
0.429989 -0.955385 4.08972 126 125 120
0.432134 -1.03699 4.07861 113 115 110
0.435254 -1.04564 4.07281 99 101 96
0.437846 -1.46605 4.06258 103 102 97
0.454915 -1.05363 4.08456 122 123 117
0.471258 -1.46719 4.08553 108 107 102
0.504749 -1.00041 4.17944 99 98 93
0.504749 -1.00041 4.17944 99 98 93
0.511474 -1.32296 4.2005 109 111 106
0.499398 -1.52483 4.09002 93 82 76
0.516854 -1.30702 4.21253 107 106 102
0.528548 -1.54596 4.07853 48 53 49
0.548491 -0.994685 4.19534 118 117 112
0.543953 -1.46396 4.12567 108 108 100
0.542814 -1.52277 4.11359 100 100 92
0.561894 -1.488 4.1346 108 109 104
0.579768 -1.32999 4.25535 128 129 123
0.600077 -1.21278 4.24707 106 107 101
0.605868 -1.26597 4.25816 97 98 92
0.613694 -1.25368 4.26303 114 117 108
0.61664 -1.24053 4.26473 135 135 125
0.62753 -1.19427 4.26561 102 101 97
0.622308 -1.46247 4.17304 85 85 75
0.642794 -1.10429 4.273 105 106 100
0.645697 -1.19261 4.27058 112 113 107
0.648075 -1.20819 4.27815 105 106 100
0.645404 -1.08093 4.24641 113 114 106
0.648128 -1.13314 4.26389 123 124 118
0.659869 -1.17769 4.28149 137 138 132
0.668269 -1.29022 4.29891 100 101 95
0.682551 -1.1364 4.28748 104 103 98
0.679511 -1.04598 4.25735 104 106 101
0.691682 -1.22045 4.30334 119 120 114
0.69225 -1.54374 4.17295 108 108 100
0.710272 -1.4836 4.22091 101 101 93
0.710272 -1.4836 4.22091 101 101 93
0.722554 -1.46206 4.22855 80 77 68
0.726355 -1.45969 4.2316 93 93 81
0.753615 -1.46038 4.24693 107 97 85
0.767916 -0.67509 4.27937 123 117 105
0.763091 -1.47251 4.24293 111 103 90
0.789142 -1.29251 4.36965 114 107 97
0.78842 -1.26513 4.36128 115 107 96
0.7891 -1.24712 4.36251 124 115 106
0.792722 -1.20539 4.35994 118 110 99
0.782385 -1.45165 4.29197 110 101 92
0.812922 -0.173294 4.44676 131 122 113
0.780105 -1.45946 4.2586 101 97 85
0.807094 -1.28851 4.37672 105 98 88
0.806503 -1.24751 4.36923 97 87 78
0.821721 -0.188403 4.44983 128 120 109
0.827081 -1.86849 4.4565 86 83 74
0.829864 -0.986628 4.35373 117 111 99
0.850055 -1.87808 4.45699 94 92 80
0.818915 -1.46186 4.28451 108 102 90
0.835779 -1.12085 4.37062 115 109 97
0.835779 -1.12085 4.37062 115 109 97
0.835779 -1.12085 4.37062 115 109 97
0.879507 -0.970495 4.38006 124 116 105
0.866777 0.960491 4.31207 99 99 91
0.912944 -1.86771 4.50703 78 78 68
0.912944 -1.86771 4.50703 78 78 68
0.857592 -1.57992 4.18548 104 100 88
0.916749 -1.0365 4.41512 111 104 94
0.90046 -0.168997 4.29071 100 96 87
0.934412 -1.25036 4.43477 117 113 101
0.899027 -0.223928 4.26506 85 86 81
0.894157 -1.52753 4.23757 100 98 86
0.898155 -1.46551 4.25648 111 107 96
0.937498 -1.36025 4.39702 0 0 0
0.951329 -0.657437 4.3784 0 0 0
0.994428 -1.86785 4.54526 0 0 0
0.966608 -1.07024 4.37889 0 0 0
0.962073 -1.08101 4.34026 0 0 0
0.971984 -0.595564 4.36687 0 0 0
1.01137 -1.87602 4.5421 0 0 0
0.975786 -1.16005 4.37011 0 0 0
0.96968 -0.420678 4.33555 0 0 0
0.978331 -1.0395 4.36813 0 0 0
1.03134 -1.86828 4.56474 0 0 0
1.03134 -1.86828 4.56474 0 0 0
0.989331 -0.441535 4.32768 0 0 0
0.994828 -0.226945 4.30998 0 0 0
1.00301 -0.292755 4.32567 0 0 0
1.01539 -1.01948 4.37751 0 0 0
0.972397 0.941055 4.18107 0 0 0
1.02555 -1.04023 4.39593 0 0 0
1.05949 -1.87175 4.52868 0 0 0
0.979337 0.932397 4.18463 0 0 0
1.03348 -1.02496 4.39728 0 0 0
1.00868 0.352824 4.28878 0 0 0
1.00949 0.257323 4.28169 0 0 0
1.01851 0.198925 4.30311 0 0 0
1.04324 -0.991609 4.38959 0 0 0
1.03689 -1.26766 4.34239 0 0 0
1.01957 0.418994 4.26711 0 0 0
1.01999 0.622957 4.24778 0 0 0
1.05246 -1.00487 4.36486 0 0 0
1.02344 0.729088 4.24037 0 0 0
1.00357 -1.58674 4.14551 0 0 0
1.00958 -1.5769 4.15358 0 0 0
1.02958 0.851748 4.23235 0 0 0
1.03196 0.832113 4.23659 0 0 0
1.04154 -1.47015 4.22497 0 0 0
1.07294 -1.38728 4.31875 0 0 0
1.13366 -0.948245 4.32098 0 0 0
1.10789 -1.48368 4.12528 0 0 0
1.13503 -1.42006 4.19376 0 0 0
1.1559 -1.36303 4.26371 0 0 0
1.11581 -1.50132 4.11224 0 0 0
1.1558 -1.31128 4.25926 0 0 0
1.10695 -1.55988 4.07597 0 0 0
1.15942 -1.37252 4.22904 0 0 0
1.14147 -1.48255 4.1386 0 0 0
1.15858 -1.0565 4.17206 0 0 0
1.15262 1.13637 4.09505 0 0 0
1.20608 -0.999786 4.23181 0 0 0
1.25369 -1.38488 4.32426 0 0 0
1.32869 -1.87827 4.46904 0 0 0
1.21419 0.473813 4.00386 0 0 0
1.21992 0.51913 3.99902 0 0 0
1.22766 0.5101 3.99705 0 0 0
1.29453 -1.53373 4.2149 0 0 0
1.22918 0.525988 3.99727 0 0 0
1.34476 -1.34161 4.36792 0 0 0
1.23469 0.906102 3.96517 0 0 0
1.41011 -1.88765 4.50931 0 0 0
1.33909 -1.47735 4.25551 0 0 0
1.23912 1.11254 3.93713 0 0 0
1.24837 0.889509 3.962 0 0 0
1.25264 1.10904 3.93797 0 0 0
1.26093 0.94449 3.95758 0 0 0
1.4533 -1.87796 4.55209 0 0 0
1.41027 -1.33511 4.39761 0 0 0
1.38238 -1.47225 4.26994 0 0 0
1.41606 -1.48227 4.28516 0 0 0
1.34132 0.612673 4.0553 0 0 0
1.34132 0.612673 4.0553 0 0 0
1.37795 0.432139 4.15184 0 0 0
1.42389 -1.55552 4.25991 0 0 0
1.42389 -1.55552 4.25991 0 0 0
1.44776 -1.53221 4.30062 0 0 0
1.49735 -0.9532 4.42563 0 0 0
1.43803 -1.60014 4.24216 0 0 0
1.48547 -0.905076 4.3783 0 0 0
1.46814 -1.61948 4.29961 0 0 0
1.47449 -1.59433 4.25594 0 0 0
1.451 1.11874 4.04828 0 0 0
1.48785 0.61731 4.14409 0 0 0
1.62119 0.62398 4.22419 0 0 0
1.91631 0.150437 4.82523 0 0 0
1.71546 0.926469 4.23086 0 0 0
1.71743 1.13195 4.20268 0 0 0
2.01603 -0.0640892 4.90298 0 0 0
2.09682 -0.0354026 4.94267 0 0 0
2.129 -0.470488 5.01581 0 0 0
2.09458 0.398559 4.92372 0 0 0
2.09458 0.398559 4.92372 0 0 0
2.10745 0.103215 4.9409 0 0 0
2.10745 0.103215 4.9409 0 0 0
2.13954 -0.357271 5.00278 0 0 0
2.13954 -0.357271 5.00278 0 0 0
2.14689 -0.249316 4.96775 0 0 0
2.13656 -0.2115 4.93843 0 0 0
2.14704 0.138887 4.95144 0 0 0
2.15012 0.0631238 4.95849 0 0 0
2.14819 0.232051 4.93626 0 0 0
2.16158 0.107418 4.96234 0 0 0
2.18795 0.0121256 4.97097 0 0 0
2.17994 -0.102673 4.95056 0 0 0
2.18342 0.0508594 4.94457 0 0 0
2.19876 -0.00907719 4.92801 0 0 0
2.20277 -0.112835 4.93412 0 0 0
2.20499 0.0421611 4.90706 0 0 0
2.21505 0.103438 4.92817 0 0 0
2.27094 -0.370186 5.04277 0 0 0
2.21559 0.685113 4.9149 0 0 0
2.22146 0.141821 4.92729 0 0 0
2.21704 0.901824 4.91002 0 0 0
2.23818 -0.0859695 4.95697 0 0 0
2.24236 0.076066 4.96278 0 0 0
2.22165 0.260171 4.91352 0 0 0
2.20724 0.923972 4.87748 0 0 0
2.22334 0.889091 4.90542 0 0 0
2.2198 0.438545 4.89495 0 0 0
2.2405 0.0383966 4.93538 0 0 0
2.22259 0.498549 4.89542 0 0 0
2.22589 0.371221 4.90028 0 0 0
2.22436 0.523286 4.8862 0 0 0
2.25281 0.118108 4.94549 0 0 0
2.22679 0.792492 4.88812 0 0 0
2.23393 0.357183 4.90323 0 0 0
2.26526 0.146457 4.94689 0 0 0
2.25812 0.0531027 4.93056 0 0 0
2.25812 0.0531027 4.93056 0 0 0
2.27202 -0.122849 4.95254 0 0 0
2.27202 -0.122849 4.95254 0 0 0
2.19652 1.19026 4.77589 0 0 0
2.26998 0.068107 4.92963 0 0 0
2.26998 0.068107 4.92963 0 0 0
2.25011 0.884273 4.87812 0 0 0
2.29054 -0.062366 4.95795 0 0 0
2.29054 -0.062366 4.95795 0 0 0
2.2952 0.147185 4.96607 0 0 0
2.2502 0.849728 4.85799 0 0 0
2.22992 0.919419 4.81318 0 0 0
2.22458 0.930497 4.79134 0 0 0
2.22912 0.963635 4.80069 0 0 0
2.21968 0.946975 4.76726 0 0 0
2.22175 0.947189 4.77066 0 0 0
2.26004 0.823091 4.85265 0 0 0
2.3034 0.375277 4.94433 0 0 0
2.3225 0.148439 4.98273 0 0 0
2.22704 1.17932 4.75858 0 0 0
2.34863 0.149575 4.99266 0 0 0
2.22677 1.14171 4.73201 0 0 0
2.25691 0.90532 4.79131 0 0 0
2.40064 -0.258451 5.09535 0 0 0
2.23785 1.16068 4.72089 0 0 0
2.38578 0.0875472 5.00629 0 0 0
2.40691 -0.147075 5.04074 0 0 0
2.40059 0.633027 4.99734 0 0 0
2.41595 0.0794432 5.01568 0 0 0
2.38724 0.795136 4.94928 0 0 0
2.45491 -0.117662 5.07013 0 0 0
2.46455 -0.20056 5.08705 0 0 0
2.45834 0.399286 5.03849 0 0 0
2.47996 -0.14742 5.06739 0 0 0
2.46841 0.537303 5.02578 0 0 0
2.46593 0.579572 5.02062 0 0 0
2.44747 0.79621 4.97671 0 0 0
2.47543 0.717019 5.00714 0 0 0
2.49801 1.19328 4.88492 0 0 0
2.59392 0.989102 4.96106 0 0 0
3.03886 1.01383 5.49665 0 0 0
3.05925 1.01534 5.49367 0 0 0
3.06331 1.25667 5.44873 0 0 0
4.22483 -3.07916 7.5121 0 0 0
3.06174 1.20792 5.44271 0 0 0
3.06174 1.20792 5.44271 0 0 0
4.26755 -2.99495 7.534 0 0 0
4.28534 -3.06566 7.55142 0 0 0
4.27423 -3.06955 7.50457 0 0 0
4.35626 -2.6165 7.55799 0 0 0
4.32388 -3.07071 7.48797 0 0 0
4.2926 -3.11065 7.37454 0 0 0
4.2926 -3.11065 7.37454 0 0 0
4.42541 -3.04158 7.56219 0 0 0
4.38952 -2.4592 7.31155 0 0 0
4.38952 -2.4592 7.31155 0 0 0
4.41589 -2.22499 7.28403 0 0 0
4.40683 -2.0309 7.26155 0 0 0
4.42891 -2.47492 7.28669 0 0 0
4.42238 -2.13868 7.2522 0 0 0
4.42238 -2.13868 7.2522 0 0 0
4.52165 -2.30834 7.36016 0 0 0
4.51207 -2.40377 7.28011 0 0 0
3.80889 1.10914 6.06991 0 0 0
4.5461 -1.53742 7.2061 0 0 0
4.54832 -1.5357 7.18696 0 0 0
