ply
format ascii 1.0 
element vertex 561
property float32 x 
property float32 y 
property float32 z
property uchar red  
property uchar green
property uchar blue
element face 0
property list uchar int vertex_indices
end_header
-1.49269 1.00205 2.51777 105 100 94
-1.49858 0.837935 2.54373 197 198 192
-1.50039 0.803183 2.56359 87 88 74
-1.47989 0.890663 2.54476 180 177 170
-1.48489 0.816949 2.55527 110 106 95
-1.46452 0.967573 2.54158 188 179 172
-1.47733 0.772323 2.60216 140 142 139
-1.52918 -0.0827299 2.74053 108 109 104
-1.42628 0.956259 2.56742 129 128 126
-1.52475 -0.226048 2.76954 223 227 239
-1.4196 0.89402 2.58001 114 114 104
-1.40801 1.01389 2.56796 99 98 94
-1.45249 0.735818 2.6577 213 209 206
-1.42427 0.788627 2.61053 200 195 192
-1.40085 1.0071 2.57309 110 111 105
-1.50836 -0.19136 2.79141 108 113 109
-1.50042 -0.111505 2.78283 120 122 121
-1.49157 -0.341981 2.76731 220 226 238
-1.47675 0.211541 2.74238 119 121 107
-1.47675 0.211541 2.74238 119 121 107
-1.39871 0.819513 2.60517 209 210 205
-1.4976 -0.224371 2.78952 218 228 238
-1.48303 -0.0393754 2.76284 17 20 13
-1.42826 0.738156 2.67689 216 216 216
-1.4331 0.646317 2.69666 245 246 241
-1.38693 0.821212 2.61177 50 46 43
-1.38693 0.821212 2.61177 50 46 43
-1.37055 1.01603 2.58652 130 129 125
-1.45846 0.0252767 2.77481 58 60 55
-1.37228 0.881206 2.61169 210 210 208
-1.45285 -0.0138531 2.77101 33 33 31
-1.45007 -0.0516223 2.76777 47 49 44
-1.37642 0.816344 2.63366 30 30 28
-1.44201 -0.0369018 2.76381 32 32 30
-1.44235 -0.0503075 2.77434 43 43 41
-1.45179 -0.224142 2.79307 221 229 240
-1.42307 0.308649 2.75669 107 103 92
-1.43354 0.137321 2.77758 187 190 183
-1.40252 0.580809 2.72455 214 214 206
-1.43647 -0.181091 2.79249 109 113 112
-1.39502 0.733849 2.71394 216 215 211
-1.43531 -0.277608 2.7948 219 225 237
-1.42836 -0.164437 2.79716 112 112 112
-1.34753 0.817024 2.65004 32 39 31
-1.34753 0.817024 2.65004 32 39 31
-1.42028 -0.153502 2.79764 145 147 146
-1.42028 -0.153502 2.79764 145 147 146
-1.41652 0.00317828 2.79591 29 29 27
-1.41652 0.00317828 2.79591 29 29 27
-1.41511 -0.11786 2.79609 132 136 137
-1.41511 -0.11786 2.79609 132 136 137
-1.41592 -0.141915 2.79831 141 143 142
-1.37986 -0.0122516 2.76032 11 12 7
-1.39586 -0.141758 2.81059 144 145 147
-1.35978 0.584162 2.75477 225 229 214
-1.43075 0.0284486 2.89944 17 19 14
-1.38716 -0.155777 2.81669 148 150 149
-1.29519 1.01557 2.63308 152 153 155
-1.30546 0.826783 2.65786 213 214 209
-1.38082 -0.000447008 2.8143 25 25 25
-1.38238 -0.280461 2.82543 219 225 237
-1.37332 0.155531 2.80887 210 210 208
-1.37628 -0.0126551 2.81607 29 29 27
-1.41782 0.012134 2.90247 25 27 24
-1.3293 0.741713 2.7355 211 206 202
-1.28005 0.977529 2.64953 164 165 167
-1.35775 -0.0628112 2.81731 44 46 43
-1.35974 0.0290708 2.82229 39 41 36
-1.34073 0.388966 2.78994 220 220 218
-1.26625 1.00109 2.65322 178 180 179
-1.35161 -0.011085 2.83399 34 34 34
-1.34878 0.0124428 2.83219 22 25 18
-1.27398 0.832866 2.67565 113 111 99
-1.27104 0.826976 2.67822 131 131 123
-1.34748 0.026681 2.84362 24 24 22
-1.34039 -0.0439118 2.83188 44 44 42
-1.33561 -0.0859274 2.83912 105 111 111
-1.33553 0.0967114 2.83897 130 134 133
-1.33666 -0.274928 2.84803 216 224 235
-1.3323 0.316094 2.84274 157 159 158
-1.33472 -0.20375 2.8504 104 106 105
-1.31831 0.313775 2.81681 160 162 161
-1.24982 0.824418 2.69174 213 214 209
-1.32645 -0.256441 2.85788 217 223 235
-1.26853 0.708585 2.78145 217 218 212
-1.29989 0.143024 2.85087 195 195 195
-1.2306 0.8301 2.70091 124 124 122
-1.25394 0.771477 2.7529 204 205 199
-1.25394 0.771477 2.7529 204 205 199
-1.26873 0.682095 2.78552 219 218 214
-1.26899 0.729959 2.78752 162 162 154
-1.27577 0.528398 2.80675 219 220 215
-1.2671 0.647436 2.79113 220 221 216
-1.2672 0.637639 2.79397 224 225 220
-1.289 0.149076 2.85585 199 199 199
-1.30245 -0.0834189 2.88664 98 106 109
-1.30245 -0.0834189 2.88664 98 106 109
-1.30747 -0.204858 2.90373 163 163 163
-1.21519 0.87169 2.70175 213 208 204
-1.21766 0.823848 2.72534 211 212 206
-1.1882 0.829451 2.72141 210 211 205
-1.25726 -0.0330518 2.97025 48 47 43
-1.22264 0.593574 2.90028 205 204 202
-1.22129 0.592294 2.90097 208 207 205
-1.24574 -0.195049 2.99864 206 207 202
-1.23637 -0.183778 3.00087 204 205 200
-1.13633 -0.186424 3.05707 206 203 196
-1.1258 -0.215226 3.0592 131 123 112
-1.1247 -0.181561 3.0624 209 208 204
-1.19871 -1.53628 3.59156 39 26 33
-1.02702 -0.185724 3.11747 210 207 200
-0.991584 -0.202641 3.1354 211 211 203
-0.976314 0.0648969 3.10587 20 22 17
-0.968427 -0.201106 3.14888 208 209 203
-0.952952 -0.183423 3.1551 200 197 190
-0.952952 -0.183423 3.1551 200 197 190
-0.951411 -0.215011 3.15531 209 208 203
-0.943122 -0.243114 3.14445 205 202 195
-0.9432 -0.170588 3.15886 204 201 196
-0.919898 -0.00643856 3.18109 28 30 27
-0.92497 -1.38543 3.37499 44 46 35
-0.904273 -1.098 3.32026 44 44 36
-0.904273 -1.098 3.32026 44 44 36
-0.854558 0.205495 3.15495 218 218 216
-0.826555 0.857256 3.06576 44 40 28
-0.874515 -0.403215 3.24449 208 209 204
-0.849008 0.14318 3.16473 165 165 165
-0.856699 -0.197864 3.21111 209 208 204
-0.827473 0.592349 3.10926 221 222 224
-0.82245 0.765993 3.09348 27 27 19
-0.856854 -0.456784 3.24324 207 204 197
-0.842044 -0.0218015 3.19374 58 60 59
-0.832831 0.161232 3.18055 185 185 185
-0.82554 -0.238601 3.20441 211 210 205
-0.820612 -0.0288923 3.20756 40 42 39
-0.823852 -0.165875 3.22975 199 201 198
-0.816319 -0.24579 3.20846 212 211 206
-0.783641 0.835279 3.09016 30 31 23
-0.812964 -0.0213219 3.22223 34 34 34
-0.810367 -0.0375662 3.2131 40 42 39
-0.812846 -0.179404 3.23686 207 208 203
-0.809445 -0.139558 3.23276 149 151 148
-0.807863 -0.196328 3.23094 211 210 206
-0.797983 0.0190282 3.20643 22 24 19
-0.788452 0.125359 3.2021 147 147 147
-0.793307 -0.177901 3.24352 207 208 203
-0.799558 -0.360785 3.27467 212 213 208
-0.790925 -0.367453 3.26398 214 213 208
-0.774317 0.125032 3.20976 145 145 145
-0.774317 0.125032 3.20976 145 145 145
-0.779169 -0.236768 3.23086 212 211 207
-0.71318 0.991097 2.96097 24 27 18
-0.753017 0.73752 3.1266 18 19 11
-0.777674 -0.31926 3.25523 207 212 208
-0.772635 -0.331588 3.25671 219 218 213
-0.76067 0.137491 3.20865 153 153 153
-0.785617 -1.10114 3.31934 123 124 119
-0.787612 -1.09168 3.33167 91 90 86
-0.761874 -0.276472 3.23404 202 199 194
-0.738059 0.758364 3.13788 13 18 12
-0.779253 -1.20483 3.32208 21 26 22
-0.770874 -1.11692 3.33296 20 20 18
-0.60411 -1.23539 3.16754 1 13 9
-0.597145 0.367655 3.13303 174 176 171
-0.59264 0.365943 3.11376 174 176 171
-0.597819 -1.2176 3.17756 152 140 140
-0.536606 0.483977 2.91917 99 102 93
-0.52781 0.660214 2.89675 11 16 9
-0.517743 1.03855 2.84427 15 18 11
-0.524634 0.747718 2.88609 38 38 26
-0.517577 0.839077 2.87047 37 37 25
-0.515685 0.878346 2.86721 22 26 12
-0.516233 0.810074 2.87979 38 38 26
-0.51025 0.989849 2.85224 13 16 7
-0.508804 1.02131 2.84745 17 20 13
-0.504472 1.01862 2.85159 14 17 10
-0.498231 0.825272 2.88804 31 32 18
-0.507666 0.345642 3.01853 178 177 172
-0.482443 0.455603 2.95296 226 228 225
-0.482443 0.455603 2.95296 226 228 225
-0.466597 0.836381 2.90475 37 38 24
-0.445154 0.940836 2.89787 50 50 38
-0.445154 0.940836 2.89787 50 50 38
-0.442474 0.39353 2.98749 188 190 187
-0.435532 0.482547 2.97541 231 232 227
-0.389358 0.762354 2.96363 19 22 13
-0.389358 0.762354 2.96363 19 22 13
-0.375055 0.545968 3.00119 220 221 216
-0.408382 -1.08157 3.27078 17 17 7
-0.411419 -1.37848 3.34313 21 22 16
-0.394426 -1.09169 3.26388 59 58 53
-0.338411 0.467678 3.03574 227 228 222
-0.328823 0.538376 3.03298 219 220 215
-0.317494 1.04306 2.9526 13 16 9
-0.347979 -1.0717 3.26574 164 160 149
-0.35618 -1.34865 3.35938 52 48 37
-0.322159 0.472261 3.04085 209 208 203
-0.301385 0.549017 3.04425 220 219 214
-0.301385 0.549017 3.04425 220 219 214
-0.305326 -1.41749 3.40917 44 46 35
-0.26148 0.574525 3.0734 192 196 199
-0.260645 0.35284 3.14158 162 159 150
-0.260645 0.35284 3.14158 162 159 150
-0.277656 -1.36157 3.41069 50 46 37
-0.242259 0.877831 3.02638 18 19 13
-0.264049 -1.40828 3.42772 62 55 45
-0.260958 -1.31909 3.41242 41 35 23
-0.23049 0.555158 3.08873 152 153 147
-0.251818 -1.36151 3.42753 70 66 54
-0.171786 0.661163 3.10796 128 129 131
-0.171163 0.572423 3.11952 171 172 167
-0.162228 0.739258 3.09866 109 117 120
-0.163122 0.574849 3.1217 160 161 156
-0.178716 -1.21114 3.4204 25 26 20
-0.149016 0.548745 3.13726 156 157 151
-0.149016 0.548745 3.13726 156 157 151
-0.142867 0.540962 3.13614 42 35 29
-0.149529 -1.46168 3.68643 72 49 41
-0.0840847 -1.51337 3.6735 126 131 135
-0.0840847 -1.51337 3.6735 126 131 135
-0.0168138 -1.5018 3.76967 88 88 80
-0.0169756 -1.26135 3.86002 26 23 14
-0.0154683 -1.28401 3.86291 68 66 54
-0.0131886 -1.22249 3.85518 105 103 91
-0.0131886 -1.22249 3.85518 105 103 91
-0.0101247 -1.26748 3.8562 101 101 91
-0.00631652 -1.20448 3.85809 70 67 60
0.000812496 -1.18213 3.85341 63 66 59
0.000967901 -1.26177 3.86931 53 52 47
0.0282131 -1.23716 3.88358 77 74 67
0.0369088 -1.26106 3.89187 73 72 68
0.0404101 -1.28559 3.90072 71 73 62
0.0429705 -1.30255 3.90189 67 66 61
0.0457271 -1.27006 3.89885 62 65 56
0.0456932 -1.25654 3.89673 75 74 69
0.045141 -1.50471 3.81162 100 96 85
0.055019 -1.32911 3.91035 66 66 56
0.0602227 -1.18104 3.89159 73 69 60
0.0602227 -1.18104 3.89159 73 69 60
0.0669449 -1.29164 3.91609 91 86 80
0.0794121 -1.53588 3.82531 104 100 91
0.142824 -1.53502 3.86087 120 116 107
0.146783 -1.5851 3.82877 118 111 101
0.154649 -1.49907 3.86996 120 111 102
0.169848 -1.15743 3.94962 25 24 20
0.174803 -1.56125 3.87455 114 110 101
0.179698 -1.3535 3.97529 56 55 50
0.182214 -1.32495 3.9813 19 19 11
0.176961 -1.58562 3.84799 118 109 100
0.176961 -1.58562 3.84799 118 109 100
0.218534 -1.0239 3.98371 169 162 152
0.283519 -1.04892 4.00766 161 157 146
0.300482 -1.5232 3.95188 82 81 77
0.309053 -0.933945 3.99356 112 108 99
0.31461 -1.32146 4.06249 139 135 124
0.31461 -1.32146 4.06249 139 135 124
0.308935 -0.994183 3.98413 130 127 118
0.309158 -1.49795 3.95496 79 75 72
0.314351 -1.0008 3.98355 124 120 111
0.325646 -1.55642 3.9501 69 70 65
0.322932 -1.61551 3.90371 76 77 72
0.336731 -1.30147 4.06812 149 142 134
0.336731 -1.30147 4.06812 149 142 134
0.337311 -1.32256 4.07184 129 125 116
0.337311 -1.32256 4.07184 129 125 116
0.33176 -1.02083 3.98915 104 94 84
0.341212 -1.24376 4.06353 134 135 127
0.363988 -1.31261 4.08388 123 114 105
0.356855 -1.49723 3.98433 69 55 52
0.367196 -1.28513 4.08514 141 132 123
0.361962 -0.965437 4.00123 140 141 135
0.361517 -1.61567 3.92661 69 70 65
0.378499 -1.19923 4.07869 94 96 91
0.384433 -1.38286 4.113 99 99 91
0.385068 -1.21593 4.08704 112 113 108
0.386524 -1.25866 4.09276 95 98 91
0.386524 -1.25866 4.09276 95 98 91
0.380429 -1.49983 4.00015 100 87 81
0.390715 -1.49667 4.00591 148 141 131
0.389788 -1.58186 3.96668 70 71 66
0.389788 -1.58186 3.96668 70 71 66
0.418539 -1.49737 4.02104 125 126 118
0.429306 -1.30734 4.11258 112 112 104
0.429259 -1.0307 4.04506 108 111 104
0.430545 -0.972844 4.04377 126 125 120
0.432903 -1.05613 4.03469 113 115 110
0.436044 -1.06496 4.02906 99 101 96
0.439666 -1.49532 4.02869 103 102 97
0.455795 -1.07326 4.04102 122 123 117
0.473332 -1.49673 4.05207 108 107 102
0.505875 -1.01915 4.13563 99 98 93
0.505875 -1.01915 4.13563 99 98 93
0.513574 -1.34943 4.16452 109 111 106
0.501816 -1.55603 4.0581 93 82 76
0.518975 -1.33313 4.17637 107 106 102
0.531209 -1.57784 4.0472 48 53 49
0.549762 -1.01353 4.15144 118 117 112
0.546575 -1.49389 4.09293 108 108 100
0.545575 -1.55423 4.0821 100 100 92
0.564724 -1.5187 4.10257 108 109 104
0.58243 -1.35708 4.22042 128 129 123
0.602411 -1.23704 4.20905 106 107 101
0.608455 -1.29159 4.22165 97 98 92
0.616311 -1.27902 4.22638 114 117 108
0.619279 -1.26548 4.22805 135 135 125
0.630064 -1.21812 4.2278 102 101 97
0.625559 -1.49291 4.14107 85 85 75
0.645047 -1.1261 4.23279 105 106 100
0.648321 -1.21653 4.23275 112 113 107
0.650822 -1.23247 4.24096 105 106 100
0.647529 -1.10211 4.20549 113 114 106
0.650472 -1.15567 4.22424 123 124 118
0.662545 -1.20131 4.24344 137 138 132
0.671466 -1.31678 4.26386 100 101 95
0.685151 -1.15918 4.24825 104 103 98
0.681668 -1.0665 4.21565 104 106 101
0.69476 -1.24532 4.26666 119 120 114
0.696354 -1.57673 4.14352 108 108 100
0.714381 -1.51519 4.19046 101 101 93
0.714381 -1.51519 4.19046 101 101 93
0.726688 -1.49314 4.19771 80 77 68
0.730508 -1.49074 4.2007 93 93 81
0.758048 -1.4916 4.21649 107 97 85
0.768694 -0.687995 4.22792 123 117 105
0.767569 -1.50415 4.21245 111 103 90
0.793395 -1.31976 4.33607 114 107 97
0.792488 -1.29166 4.32677 115 107 96
0.793084 -1.27318 4.3275 124 115 106
0.79651 -1.2304 4.32377 118 110 99
0.787097 -1.48294 4.26173 110 101 92
0.811681 -0.178069 4.3821 131 122 113
0.784763 -1.49082 4.22833 101 97 85
0.81149 -1.31572 4.34326 105 98 88
0.810643 -1.27365 4.33446 97 87 78
0.820467 -0.193622 4.38526 128 120 109
0.811497 -1.02857 4.32086 119 113 101
0.83458 -1.91328 4.43894 86 83 74
0.854012 -1.89225 4.45489 87 87 75
0.832719 -1.00638 4.31163 117 111 99
0.857854 -1.92333 4.4398 94 92 80
0.823965 -1.49354 4.25476 108 102 90
0.839446 -1.14387 4.33247 115 109 97
0.839446 -1.14387 4.33247 115 109 97
0.839446 -1.14387 4.33247 115 109 97
0.882587 -0.990055 4.33783 124 116 105
0.858642 0.962905 4.2153 99 99 91
0.921626 -1.91326 4.49088 78 78 68
0.921626 -1.91326 4.49088 78 78 68
0.867318 0.955304 4.22008 106 106 98
0.863297 -1.61476 4.15822 104 100 88
0.920541 -1.05778 4.37522 111 104 94
0.898413 -0.173816 4.22479 100 96 87
0.939638 -1.27723 4.4011 117 113 101
0.897203 -0.229513 4.20056 85 86 81
0.900077 -1.5612 4.20973 100 98 86
0.903799 -1.4975 4.22708 111 107 96
0.943276 -1.38999 4.36611 0 0 0
0.952734 -0.67038 4.3272 0 0 0
1.00424 -1.91408 4.53029 0 0 0
0.970709 -1.09241 4.33963 0 0 0
0.966093 -1.1033 4.30104 0 0 0
0.972901 -0.607443 4.3135 0 0 0
1.02138 -1.92262 4.52718 0 0 0
0.980588 -1.18436 4.33379 0 0 0
0.969314 -0.429379 4.2769 0 0 0
0.982266 -1.06091 4.32796 0 0 0
1.04172 -1.91484 4.55044 0 0 0
1.04172 -1.91484 4.55044 0 0 0
0.989044 -0.45064 4.26947 0 0 0
0.992964 -0.232754 4.24528 0 0 0
1.00165 -0.299541 4.26295 0 0 0
1.01941 -1.04051 4.33689 0 0 0
0.962385 0.942302 4.08326 0 0 0
1.02986 -1.06181 4.35617 0 0 0
1.0701 -1.91841 4.51416 0 0 0
0.969292 0.933599 4.08693 0 0 0
1.03772 -1.04621 4.35705 0 0 0
1.00261 0.352791 4.20686 0 0 0
1.00402 0.256583 4.20246 0 0 0
1.0135 0.197751 4.22559 0 0 0
1.04728 -1.01202 4.34841 0 0 0
0.968664 1.15522 4.01463 0 0 0
1.04272 -1.29489 4.30917 0 0 0
1.01288 0.419382 4.18321 0 0 0
1.01177 0.623991 4.15797 0 0 0
1.05658 -1.02549 4.32406 0 0 0
1.01446 0.730381 4.14763 0 0 0
1.01053 -1.62224 4.11915 0 0 0
1.01655 -1.61217 4.12704 0 0 0
1.01968 0.853103 4.13621 0 0 0
1.02216 0.833408 4.14092 0 0 0
1.04831 -1.50271 4.19622 0 0 0
1.13739 -0.967715 4.27776 0 0 0
1.11494 -1.51648 4.09638 0 0 0
1.1421 -1.45135 4.16384 0 0 0
1.16292 -1.39306 4.23268 0 0 0
1.12301 -1.53462 4.08379 0 0 0
1.16241 -1.33982 4.22673 0 0 0
1.11438 -1.59473 4.04882 0 0 0
1.16641 -1.40268 4.19801 0 0 0
1.14885 -1.51547 4.11001 0 0 0
1.16268 -1.07813 4.13115 0 0 0
1.13803 1.13552 3.98941 0 0 0
1.2044 0.449572 4.17595 0 0 0
1.21023 -1.02023 4.18982 0 0 0
1.26199 -1.41601 4.29499 0 0 0
1.34274 -1.92632 4.45641 0 0 0
1.20318 0.472743 3.91505 0 0 0
1.20841 0.518151 3.90883 0 0 0
1.21612 0.50909 3.90702 0 0 0
1.304 -1.56905 4.18907 0 0 0
1.21748 0.525002 3.90676 0 0 0
1.21936 0.904577 3.86396 0 0 0
1.42551 -1.93667 4.49801 0 0 0
1.34863 -1.51125 4.22861 0 0 0
1.22184 1.10995 3.83051 0 0 0
1.2329 0.887926 3.86099 0 0 0
1.23511 1.10634 3.83118 0 0 0
1.24478 0.942724 3.85493 0 0 0
1.46946 -1.92706 4.54151 0 0 0
1.41969 -1.3655 4.36788 0 0 0
1.39231 -1.50618 4.24313 0 0 0
1.42644 -1.5167 4.25884 0 0 0
1.3277 0.611668 3.9608 0 0 0
1.3277 0.611668 3.9608 0 0 0
1.3665 0.431132 4.06264 0 0 0
1.43499 -1.59215 4.23571 0 0 0
1.43499 -1.59215 4.23571 0 0 0
1.45907 -1.56834 4.27623 0 0 0
1.50316 -0.973566 4.38341 0 0 0
1.44968 -1.63817 4.21931 0 0 0
1.49036 -0.924147 4.33399 0 0 0
1.48651 -1.63235 4.23316 0 0 0
1.46246 0.511516 4.04624 0 0 0
1.43044 1.1157 3.93762 0 0 0
1.47275 0.616188 4.04746 0 0 0
1.57375 -0.136183 4.23692 0 0 0
1.60473 0.622825 4.12555 0 0 0
1.90957 0.148345 4.74396 0 0 0
1.69355 0.924244 4.12101 0 0 0
1.69266 1.1284 4.08659 0 0 0
2.09326 -0.0394252 4.86811 0 0 0
2.13383 -0.481727 4.95971 0 0 0
2.08327 0.398342 4.83154 0 0 0
2.08327 0.398342 4.83154 0 0 0
2.10119 0.10051 4.86025 0 0 0
2.10119 0.10051 4.86025 0 0 0
2.14215 -0.366359 4.94167 0 0 0
2.14215 -0.366359 4.94167 0 0 0
2.14703 -0.256619 4.90144 0 0 0
2.13573 -0.21816 4.8703 0 0 0
2.13996 0.136552 4.86899 0 0 0
2.14443 0.0599593 4.87909 0 0 0
2.13928 0.230567 4.8499 0 0 0
2.15515 0.104876 4.88124 0 0 0
2.18323 0.00863147 4.89368 0 0 0
2.1769 -0.10794 4.87737 0 0 0
2.17749 0.0475311 4.86503 0 0 0
2.19358 -0.0131314 4.85047 0 0 0
2.19952 -0.118294 4.86076 0 0 0
2.18271 -0.181049 4.82065 0 0 0
2.19856 0.0387355 4.82713 0 0 0
2.20765 0.100636 4.84584 0 0 0
2.27375 -0.379749 4.98119 0 0 0
2.19746 0.68547 4.80933 0 0 0
2.21332 0.13946 4.84337 0 0 0
2.19514 0.902106 4.79628 0 0 0
2.23463 -0.0908697 4.88268 0 0 0
2.23568 0.0729724 4.88162 0 0 0
2.21094 0.258531 4.82432 0 0 0
2.20009 0.628545 4.79922 0 0 0
2.18468 0.92411 4.76282 0 0 0
2.21887 0.201215 4.83421 0 0 0
2.2015 0.889435 4.79203 0 0 0
2.20567 0.438064 4.79857 0 0 0
2.23838 0.0101101 4.86898 0 0 0
2.23412 0.0348058 4.85533 0 0 0
2.20731 0.498277 4.79661 0 0 0
2.21294 0.370344 4.80648 0 0 0
2.20846 0.523029 4.78625 0 0 0
2.24491 0.115312 4.86207 0 0 0
2.20616 0.792637 4.7779 0 0 0
2.2211 0.3561 4.80976 0 0 0
2.25674 0.143972 4.8622 0 0 0
2.25125 0.0496851 4.84962 0 0 0
2.25125 0.0496851 4.84962 0 0 0
2.26049 -0.178078 4.86746 0 0 0
2.26889 -0.128257 4.8793 0 0 0
2.26889 -0.128257 4.8793 0 0 0
2.2669 -0.0839852 4.87184 0 0 0
2.16826 1.18852 4.65102 0 0 0
2.26262 0.0647242 4.84773 0 0 0
2.26262 0.0647242 4.84773 0 0 0
2.22735 0.884265 4.76396 0 0 0
2.27245 0.0154442 4.85356 0 0 0
2.28598 -0.0672093 4.88167 0 0 0
2.28598 -0.0672093 4.88167 0 0 0
2.2866 0.144671 4.88112 0 0 0
2.22767 0.849565 4.74481 0 0 0
2.20588 0.918906 4.69738 0 0 0
2.20004 0.929668 4.67493 0 0 0
2.20413 0.962852 4.68315 0 0 0
2.18178 0.940656 4.62292 0 0 0
2.37823 -0.295673 5.03898 0 0 0
2.37823 -0.295673 5.03898 0 0 0
2.19671 0.94631 4.65357 0 0 0
2.23766 0.822836 4.74014 0 0 0
2.28994 0.374347 4.84953 0 0 0
2.31384 0.145934 4.89753 0 0 0
2.19797 1.17741 4.63324 0 0 0
2.25746 0.115791 4.75548 0 0 0
2.33977 0.147018 4.90708 0 0 0
2.19777 1.13958 4.60759 0 0 0
2.2322 0.904605 4.6752 0 0 0
2.40128 -0.266186 5.02824 0 0 0
2.35188 0.119102 4.91005 0 0 0
3.7643 -2.74079 7.83938 0 0 0
2.20808 1.15826 4.59545 0 0 0
2.37303 0.1477 4.93066 0 0 0
2.37793 0.0842981 4.92285 0 0 0
2.40453 -0.15291 4.96805 0 0 0
2.38149 0.633029 4.89105 0 0 0
2.42848 -0.110392 4.98333 0 0 0
2.42848 -0.110392 4.98333 0 0 0
2.36448 0.795 4.83626 0 0 0
2.45176 -0.123329 4.9956 0 0 0
2.46344 -0.207389 5.0164 0 0 0
3.95856 -3.08569 8.00519 0 0 0
2.44367 0.398478 4.94118 0 0 0
4.00249 -2.98628 8.08068 0 0 0
2.47733 -0.153403 4.99394 0 0 0
2.45046 0.536903 4.92228 0 0 0
2.44718 0.579445 4.91552 0 0 0
2.4239 0.795921 4.86261 0 0 0
2.44172 0.832416 4.88762 0 0 0
2.45342 0.716839 4.89597 0 0 0
2.46392 1.1903 4.75339 0 0 0
2.56282 0.987415 4.83563 0 0 0
3.00789 1.01409 5.36726 0 0 0
3.02749 1.01517 5.36339 0 0 0
4.36906 -3.22984 7.66427 0 0 0
3.02408 1.20646 5.30322 0 0 0
3.02408 1.20646 5.30322 0 0 0
4.41188 -3.1404 7.68417 0 0 0
4.43301 -3.21639 7.70674 0 0 0
4.42081 -3.22 7.65768 0 0 0
4.48986 -2.73663 7.68493 0 0 0
4.47253 -3.22146 7.64132 0 0 0
4.43864 -3.2626 7.52294 0 0 0
4.57785 -3.19142 7.71752 0 0 0
4.5148 -2.5672 7.41882 0 0 0
4.5148 -2.5672 7.41882 0 0 0
4.53384 -2.31857 7.37764 0 0 0
4.5159 -2.113 7.34081 0 0 0
4.55533 -2.58374 7.39358 0 0 0
4.64606 -2.40769 7.46059 0 0 0
4.63895 -2.50835 7.3838 0 0 0
3.76909 1.10917 5.92532 0 0 0
4.62463 -1.58362 7.25312 0 0 0
4.63627 -1.59325 7.24967 0 0 0
4.63789 -1.59133 7.22941 0 0 0
