ply
format ascii 1.0 
element vertex 1003
property float32 x 
property float32 y 
property float32 z
property uchar red  
property uchar green
property uchar blue
element face 0
property list uchar int vertex_indices
end_header
-1.50936 1.0312 2.55249 200 200 190
-1.4996 1.01616 2.56417 105 100 94
-1.50543 0.84999 2.59049 197 198 192
-1.50715 0.814773 2.61058 87 88 74
-1.48657 0.903343 2.59146 180 177 170
-1.49156 0.828713 2.60212 110 106 95
-1.47108 0.981178 2.58818 188 179 172
-1.48367 0.783441 2.64948 140 142 139
-1.53523 -0.0821105 2.78955 108 109 104
-1.43238 0.969629 2.61418 129 128 126
-1.53061 -0.227154 2.81884 223 227 239
-1.42559 0.906609 2.6269 114 114 104
-1.41396 1.02793 2.61465 99 98 94
-1.45832 0.746367 2.7055 213 209 206
-1.40672 1.02104 2.61982 110 111 105
-1.51395 -0.192018 2.84082 108 113 109
-1.50598 -0.111201 2.83211 120 122 121
-1.49718 -0.344464 2.81646 220 226 238
-1.48233 0.215727 2.79116 119 121 107
-1.48233 0.215727 2.79116 119 121 107
-1.50311 -0.225419 2.83887 218 228 238
-1.48857 -0.0382016 2.81186 17 20 13
-1.4338 0.74868 2.7248 216 216 216
-1.43856 0.655719 2.74479 245 246 241
-1.3925 0.832834 2.65891 50 46 43
-1.3925 0.832834 2.65891 50 46 43
-1.37611 1.03001 2.63331 130 129 125
-1.46372 0.0272353 2.82382 58 60 55
-1.37773 0.893531 2.65878 210 210 208
-1.45809 -0.0123583 2.81998 33 33 31
-1.4553 -0.0505775 2.8167 47 49 44
-1.38179 0.827852 2.68099 30 30 28
-1.44721 -0.0356779 2.81267 32 32 30
-1.37302 0.833061 2.66971 30 35 28
-1.44749 -0.0492414 2.82329 43 43 41
-1.42814 0.313979 2.80538 107 103 92
-1.43858 0.140616 2.82651 187 190 183
-1.4076 0.589377 2.77285 214 214 206
-1.44147 -0.181571 2.84161 109 113 112
-1.40009 0.744225 2.76208 216 215 211
-1.44028 -0.279235 2.84394 219 225 237
-1.43326 -0.164709 2.84626 112 112 112
-1.35259 0.828485 2.69745 32 39 31
-1.35259 0.828485 2.69745 32 39 31
-1.42511 -0.153639 2.84672 145 147 146
-1.42511 -0.153639 2.84672 145 147 146
-1.42133 0.00489261 2.84494 29 29 27
-1.42133 0.00489261 2.84494 29 29 27
-1.4199 -0.117572 2.84513 132 136 137
-1.4199 -0.117572 2.84513 132 136 137
-1.42071 -0.141912 2.84738 141 143 142
-1.33597 0.828614 2.70883 48 50 47
-1.37604 -0.0106102 2.79157 11 12 7
-1.36116 0.0206686 2.77428 9 11 6
-1.36116 0.0206686 2.77428 9 11 6
-1.40043 -0.141734 2.85968 144 145 147
-1.36437 0.592703 2.80319 225 229 214
-1.39162 -0.155908 2.86579 148 150 149
-1.29993 1.02936 2.68014 152 153 155
-1.31016 0.838314 2.70523 213 214 209
-1.38525 0.00124105 2.86334 25 25 25
-1.38677 -0.282046 2.87461 219 225 237
-1.37771 0.159039 2.85783 210 210 208
-1.38066 -0.0111073 2.86511 29 29 27
-1.42202 0.0139561 2.95237 25 27 24
-1.33376 0.752098 2.78364 211 206 202
-1.2846 0.990819 2.69672 164 165 167
-1.36199 -0.0618385 2.8663 44 46 43
-1.34498 0.395193 2.83862 220 220 218
-1.27067 1.01463 2.70041 178 180 179
-1.35571 -0.00950623 2.88308 34 34 34
-1.35287 0.0142946 2.88126 22 25 18
-1.27835 0.844407 2.72311 113 111 99
-1.27539 0.838442 2.72569 131 131 123
-1.34442 -0.0427078 2.88092 44 44 42
-1.33948 0.0995383 2.88805 130 134 133
-1.34058 -0.276387 2.89721 216 224 235
-1.32967 0.319917 2.87767 157 159 158
-1.3386 -0.204382 2.89958 104 106 105
-1.32225 0.319107 2.86564 160 162 161
-1.25394 0.83581 2.73928 213 214 209
-1.33024 -0.257668 2.90709 217 223 235
-1.23454 0.841524 2.74848 124 124 122
-1.25777 0.782124 2.80098 204 205 199
-1.25777 0.782124 2.80098 204 205 199
-1.27249 0.691666 2.83392 219 218 214
-1.27274 0.740068 2.83593 162 162 154
-1.27946 0.536188 2.85536 219 220 215
-1.27081 0.6566 2.83958 220 221 216
-1.27091 0.646687 2.84244 224 225 220
-1.29253 0.152507 2.90488 199 199 199
-1.30591 -0.0826336 2.93596 98 106 109
-1.30591 -0.0826336 2.93596 98 106 109
-1.31086 -0.205444 2.95319 163 163 163
-1.21901 0.883583 2.74929 213 208 204
-1.22138 0.835137 2.77309 211 212 206
-1.19174 0.840798 2.76907 210 211 205
-1.25995 -0.0316597 3.02 48 47 43
-1.22549 0.601922 2.94943 205 204 202
-1.22412 0.600627 2.95012 208 207 205
-1.2482 -0.195416 3.04853 206 207 202
-1.23875 -0.184013 3.05073 204 205 200
-1.13779 -0.18658 3.10688 206 203 196
-1.12718 -0.215678 3.10898 131 123 112
-1.12607 -0.181654 3.1122 209 208 204
-1.02756 -0.185757 3.16719 210 207 200
-0.991846 -0.202809 3.18508 211 211 203
-0.976656 0.0674396 3.15543 20 22 17
-0.968506 -0.201232 3.19853 208 209 203
-0.952925 -0.183358 3.20474 200 197 190
-0.952925 -0.183358 3.20474 200 197 190
-0.951371 -0.21526 3.20493 209 208 203
-0.943086 -0.243647 3.19398 205 202 195
-0.943109 -0.170386 3.20849 204 201 196
-0.919608 -0.00458997 3.23079 28 30 27
-0.873694 -0.405146 3.29415 208 209 204
-0.848465 0.146526 3.2142 165 165 165
-0.855958 -0.197838 3.26065 209 208 204
-0.827109 0.600201 3.1586 221 222 224
-0.822143 0.775608 3.14277 27 27 19
-0.855947 -0.459209 3.29279 207 204 197
-0.841327 -0.0200685 3.24323 58 60 59
-0.919855 -1.36419 3.55 13 16 7
-0.832148 0.164751 3.23005 185 185 185
-0.824678 -0.238952 3.2538 211 210 205
-0.819739 -0.0272163 3.25704 40 42 39
-0.822886 -0.165507 3.27926 199 201 198
-0.815396 -0.2462 3.25783 212 211 206
-0.811998 -0.0195673 3.27174 34 34 34
-0.809426 -0.0359682 3.26257 40 42 39
-0.811801 -0.179153 3.28636 207 208 203
-0.808407 -0.138928 3.28225 149 151 148
-0.806818 -0.19624 3.2804 211 210 206
-0.797017 0.0211747 3.25584 22 24 19
-0.787476 0.128532 3.25153 147 147 147
-0.79215 -0.17762 3.29298 207 208 203
-0.798279 -0.362201 3.32416 212 213 208
-0.789653 -0.368939 3.31341 214 213 208
-0.773247 0.128203 3.25919 145 145 145
-0.773247 0.128203 3.25919 145 145 145
-0.777993 -0.237045 3.2802 212 211 207
-0.752252 0.746757 3.17591 18 19 11
-0.776385 -0.320292 3.30461 207 212 208
-0.771319 -0.332732 3.30609 219 218 213
-0.75955 0.140787 3.25806 153 153 153
-0.784036 -1.10933 3.36872 123 124 119
-0.785992 -1.09975 3.38111 91 90 86
-0.760608 -0.277112 3.28332 202 199 194
-0.737184 0.767772 3.18721 13 18 12
-0.769176 -1.12518 3.38232 20 20 18
-0.602299 -1.24501 3.21547 1 13 9
-0.59477 0.372673 3.17732 174 176 171
-0.591172 0.371546 3.16256 174 176 171
-0.601401 -1.2195 3.23089 63 78 75
-0.595951 -1.227 3.22551 152 140 140
-0.535545 0.491049 2.96712 99 102 93
-0.5268 0.669177 2.94468 11 16 9
-0.523653 0.757629 2.93401 38 38 26
-0.51662 0.849994 2.91834 37 37 25
-0.515237 0.820659 2.9277 38 38 26
-0.50933 1.00242 2.90004 13 16 7
-0.507894 1.03423 2.89523 17 20 13
-0.503528 1.0315 2.8994 14 17 10
-0.497122 0.835996 2.93599 31 32 18
-0.506135 0.351165 3.06683 178 177 172
-0.481014 0.462335 3.00102 226 228 225
-0.481014 0.462335 3.00102 226 228 225
-0.465283 0.847178 2.95279 37 38 24
-0.443767 0.952748 2.94591 50 50 38
-0.443767 0.952748 2.94591 50 50 38
-0.440751 0.399586 3.03564 188 190 187
-0.433823 0.489529 3.02357 231 232 227
-0.387502 0.772233 3.01191 19 22 13
-0.387502 0.772233 3.01191 19 22 13
-0.37301 0.553559 3.04949 220 221 216
-0.405554 -1.089 3.31845 17 17 7
-0.408375 -1.38818 3.3908 21 22 16
-0.391569 -1.09922 3.31148 59 58 53
-0.336108 0.474431 3.08411 227 228 222
-0.369437 -1.32993 3.39363 58 60 49
-0.326493 0.54584 3.08139 219 220 215
-0.315364 1.05586 3.00098 13 16 9
-0.344972 -1.07898 3.31323 164 160 149
-0.352936 -1.35791 3.40691 52 48 37
-0.319775 0.479054 3.08923 209 208 203
-0.298912 0.556573 3.09271 220 219 214
-0.298912 0.556573 3.09271 220 219 214
-0.30182 -1.42695 3.45654 44 46 35
-0.258775 0.582284 3.12198 192 196 199
-0.257764 0.358341 3.19015 162 159 150
-0.257764 0.358341 3.19015 162 159 150
-0.274082 -1.37052 3.45801 50 46 37
-0.239604 0.888732 3.07503 18 19 13
-0.239604 0.888732 3.07503 18 19 13
-0.260402 -1.41748 3.47496 62 55 45
-0.257344 -1.32766 3.45971 41 35 23
-0.227623 0.562703 3.13735 152 153 147
-0.248146 -1.37032 3.47477 70 66 54
-0.246123 -1.30528 3.46254 63 57 43
-0.168653 0.669717 3.15675 128 129 131
-0.167999 0.580091 3.16825 171 172 167
-0.15908 0.748598 3.14749 109 117 120
-0.159922 0.582539 3.17045 160 161 156
-0.174903 -1.21865 3.46751 25 26 20
-0.145732 0.556156 3.18603 156 157 151
-0.145732 0.556156 3.18603 156 157 151
-0.139561 0.548301 3.1849 42 35 29
-0.145156 -1.46977 3.73337 72 49 41
-0.0796601 -1.52171 3.72009 126 131 135
-0.0796601 -1.52171 3.72009 126 131 135
-0.0121951 -1.5094 3.8159 88 88 80
-0.0122457 -1.267 3.90631 26 23 14
-0.0122457 -1.267 3.90631 26 23 14
-0.0107318 -1.28979 3.90919 68 66 54
-0.00846285 -1.22793 3.90153 105 103 91
-0.00846285 -1.22793 3.90153 105 103 91
-0.00539527 -1.27318 3.90249 101 101 91
-0.00158557 -1.20978 3.90442 70 67 60
0.00553911 -1.1873 3.89974 63 66 59
0.00571439 -1.26735 3.91551 53 52 47
0.0329824 -1.24247 3.92967 77 74 67
0.045201 -1.29109 3.94667 71 73 62
0.0477651 -1.30815 3.94783 67 66 61
0.0505125 -1.27546 3.94477 62 65 56
0.0504801 -1.26188 3.94271 75 74 69
0.0498365 -1.51196 3.85753 100 96 85
0.0598217 -1.3348 3.95618 66 66 56
0.065006 -1.18594 3.93762 73 69 60
0.065006 -1.18594 3.93762 73 69 60
0.0841289 -1.54317 3.87101 104 100 91
0.147573 -1.54197 3.90624 120 116 107
0.151509 -1.59251 3.87416 118 111 101
0.174662 -1.16175 3.99508 25 24 20
0.179558 -1.56821 3.91975 114 110 101
0.184521 -1.35877 4.02041 56 55 50
0.181697 -1.59286 3.89322 118 109 100
0.181697 -1.59286 3.89322 118 109 100
0.223356 -1.02728 4.02909 169 162 152
0.288307 -1.05225 4.05269 161 157 146
0.305208 -1.52925 3.99639 82 81 77
0.313836 -0.936691 4.03876 112 108 99
0.319345 -1.32587 4.10674 139 135 124
0.319345 -1.32587 4.10674 139 135 124
0.313711 -0.997283 4.02927 130 127 118
0.313882 -1.50384 3.99948 79 75 72
0.319125 -1.00393 4.02869 124 120 111
0.330351 -1.5626 3.9945 69 70 65
0.327633 -1.62227 3.94821 76 77 72
0.341455 -1.30573 4.11237 149 142 134
0.341455 -1.30573 4.11237 149 142 134
0.342032 -1.32691 4.11604 129 125 116
0.342032 -1.32691 4.11604 129 125 116
0.336512 -1.02402 4.03412 104 94 84
0.34596 -1.25996 4.11051 134 130 121
0.345949 -1.24779 4.10794 134 135 127
0.368681 -1.31681 4.12795 123 114 105
0.361537 -1.50285 4.02856 69 55 52
0.371885 -1.28918 4.12921 141 132 123
0.366706 -0.968256 4.0462 140 141 135
0.366191 -1.62222 3.97089 69 70 65
0.383184 -1.20288 4.12288 94 96 91
0.38908 -1.3872 4.15672 99 99 91
0.389737 -1.21961 4.13112 112 113 108
0.391191 -1.26253 4.13677 95 98 91
0.391191 -1.26253 4.13677 95 98 91
0.385087 -1.50533 4.04423 100 87 81
0.395362 -1.50211 4.04994 148 141 131
0.394437 -1.58795 4.01076 70 71 66
0.394437 -1.58795 4.01076 70 71 66
0.42315 -1.50267 4.0649 125 126 118
0.433903 -1.31126 4.15628 112 112 104
0.433934 -1.03362 4.08959 108 111 104
0.435228 -0.975471 4.08839 126 125 120
0.437566 -1.05919 4.07917 113 115 110
0.440707 -1.06809 4.07355 99 101 96
0.444251 -1.50052 4.07245 103 102 97
0.460441 -1.07637 4.08543 122 123 117
0.477863 -1.50175 4.09561 108 107 102
0.510389 -1.02153 4.17939 99 98 93
0.510389 -1.02153 4.17939 99 98 93
0.518006 -1.35314 4.2076 109 111 106
0.506297 -1.56124 4.10143 93 82 76
0.523385 -1.3367 4.21937 107 106 102
0.535655 -1.58316 4.09048 48 53 49
0.554215 -1.01579 4.19509 118 117 112
0.550972 -1.49854 4.13604 108 108 100
0.549974 -1.55921 4.12518 100 100 92
0.569082 -1.52338 4.14554 108 109 104
0.586679 -1.36042 4.26292 128 129 123
0.606676 -1.23995 4.25185 106 107 101
0.612678 -1.29465 4.26423 97 98 92
0.620509 -1.28198 4.2689 114 117 108
0.623453 -1.26835 4.27049 135 135 125
0.634229 -1.22079 4.2703 102 101 97
0.62978 -1.49716 4.1837 85 85 75
0.649217 -1.12839 4.27547 105 106 100
0.652452 -1.21915 4.27521 112 113 107
0.654919 -1.2351 4.28328 105 106 100
0.651733 -1.10441 4.24837 113 114 106
0.654646 -1.15812 4.26695 123 124 118
0.666635 -1.20381 4.28581 137 138 132
0.675482 -1.31961 4.30588 100 101 95
0.68922 -1.16148 4.29071 104 103 98
0.685812 -1.06858 4.25849 104 106 101
0.69874 -1.24784 4.30873 119 120 114
0.700413 -1.58117 4.18577 108 108 100
0.718352 -1.5191 4.23249 101 101 93
0.718352 -1.5191 4.23249 101 101 93
0.730629 -1.4969 4.23969 80 77 68
0.73444 -1.49447 4.24268 93 93 81
0.761882 -1.49519 4.25823 107 97 85
0.772812 -0.688412 4.27137 123 117 105
0.771416 -1.50784 4.2543 111 103 90
0.796981 -1.32204 4.37718 114 107 97
0.796114 -1.29391 4.36805 115 107 96
0.796716 -1.27537 4.36882 124 115 106
0.80016 -1.23246 4.36521 118 110 99
0.790796 -1.48621 4.30314 110 101 92
0.815607 -0.17609 4.42539 131 122 113
0.788521 -1.4943 4.26996 101 97 85
0.815011 -1.31792 4.38425 105 98 88
0.81421 -1.27577 4.37565 97 87 78
0.824391 -0.191703 4.42859 128 120 109
0.837666 -1.91662 4.47803 86 83 74
0.836398 -1.00768 4.35358 117 111 99
0.860861 -1.92665 4.47882 94 92 80
0.827579 -1.49683 4.29609 108 102 90
0.843 -1.14554 4.37391 115 109 97
0.843 -1.14554 4.37391 115 109 97
0.843 -1.14554 4.37391 115 109 97
0.886101 -0.991148 4.37953 124 116 105
0.863397 0.970626 4.26252 99 99 91
0.924277 -1.91602 4.5292 78 78 68
0.924277 -1.91602 4.5292 78 78 68
0.866975 -1.61899 4.19989 104 100 88
0.92383 -1.0589 4.41636 111 104 94
0.902612 -0.171919 4.26945 100 96 87
0.942711 -1.27889 4.4415 117 113 101
0.901445 -0.227899 4.24529 85 86 81
0.903571 -1.56486 4.25104 100 98 86
0.907283 -1.50085 4.26843 111 107 96
0.946374 -1.39216 4.40655 0 0 0
0.956288 -0.670325 4.3697 0 0 0
1.00647 -1.91639 4.56798 0 0 0
0.973965 -1.09377 4.38098 0 0 0
0.969457 -1.10487 4.34268 0 0 0
0.976516 -0.60719 4.35635 0 0 0
1.02357 -1.92498 4.56491 0 0 0
0.983749 -1.186 4.37482 0 0 0
0.973143 -0.428501 4.32051 0 0 0
0.985542 -1.0622 4.36946 0 0 0
1.04373 -1.91692 4.58778 0 0 0
1.04373 -1.91692 4.58778 0 0 0
0.992862 -0.449859 4.31312 0 0 0
0.996989 -0.231072 4.28973 0 0 0
1.00557 -0.298128 4.30708 0 0 0
1.02259 -1.04167 4.37834 0 0 0
0.967583 0.950515 4.13176 0 0 0
1.03293 -1.06294 4.39735 0 0 0
1.07211 -1.92072 4.55179 0 0 0
0.974483 0.941751 4.13541 0 0 0
1.04079 -1.04728 4.39827 0 0 0
1.00712 0.357321 4.25317 0 0 0
1.00849 0.260621 4.24858 0 0 0
1.01785 0.201474 4.27138 0 0 0
1.05036 -1.01301 4.38977 0 0 0
1.04573 -1.29694 4.35004 0 0 0
1.0175 0.424304 4.22987 0 0 0
1.01659 0.630103 4.20535 0 0 0
1.0597 -1.02661 4.36554 0 0 0
1.01938 0.737132 4.19533 0 0 0
1.01399 -1.62654 4.16076 0 0 0
1.01998 -1.61637 4.16862 0 0 0
1.0247 0.860614 4.18427 0 0 0
1.02716 0.84079 4.18892 0 0 0
1.05155 -1.50608 4.23755 0 0 0
1.08273 -1.42032 4.32966 0 0 0
1.14059 -0.968813 4.31992 0 0 0
1.11836 -1.52045 4.13835 0 0 0
1.14528 -1.45465 4.20544 0 0 0
1.16588 -1.39575 4.27392 0 0 0
1.12645 -1.53872 4.12578 0 0 0
1.16543 -1.34237 4.26815 0 0 0
1.11791 -1.59928 4.09088 0 0 0
1.16948 -1.40561 4.2395 0 0 0
1.15217 -1.51931 4.15183 0 0 0
1.16629 -1.08025 4.17418 0 0 0
1.14396 1.14562 4.03963 0 0 0
1.21357 -1.02184 4.23251 0 0 0
1.26444 -1.41831 4.33549 0 0 0
1.34384 -1.92857 4.49383 0 0 0
1.20923 0.478632 3.96476 0 0 0
1.21453 0.52437 3.95873 0 0 0
1.22226 0.515256 3.95693 0 0 0
1.30667 -1.57243 4.23005 0 0 0
1.22364 0.53128 3.95673 0 0 0
1.35567 -1.37378 4.37818 0 0 0
1.22602 0.913745 3.91514 0 0 0
1.4261 -1.9385 4.53486 0 0 0
1.35109 -1.51417 4.2694 0 0 0
1.22878 1.12084 3.88231 0 0 0
1.23961 0.897001 3.91223 0 0 0
1.2421 1.11721 3.88304 0 0 0
1.25158 0.95225 3.90637 0 0 0
1.46966 -1.92847 4.5778 0 0 0
1.42148 -1.36714 4.40784 0 0 0
1.39462 -1.50897 4.28382 0 0 0
1.42859 -1.5194 4.29938 0 0 0
1.33392 0.618501 4.01108 0 0 0
1.33392 0.618501 4.01108 0 0 0
1.37204 0.43656 4.11168 0 0 0
1.43715 -1.5952 4.27618 0 0 0
1.43715 -1.5952 4.27618 0 0 0
1.461 -1.57103 4.3164 0 0 0
1.50517 -0.974079 4.4247 0 0 0
1.43558 -1.62306 4.21208 0 0 0
1.49274 -0.924731 4.37597 0 0 0
1.48243 -1.66127 4.31815 0 0 0
1.48851 -1.63548 4.27349 0 0 0
1.43751 1.1264 3.98979 0 0 0
1.47884 0.622941 4.09773 0 0 0
1.61062 0.62952 4.17578 0 0 0
1.91005 0.151906 4.78589 0 0 0
1.70008 0.933074 4.17269 0 0 0
1.69965 1.13883 4.13909 0 0 0
2.01227 -0.0652685 4.87018 0 0 0
2.09202 -0.0362983 4.90795 0 0 0
2.13081 -0.47919 4.99621 0 0 0
2.08319 0.402642 4.87381 0 0 0
2.08319 0.402642 4.87381 0 0 0
2.10032 0.103969 4.90096 0 0 0
2.10032 0.103969 4.90096 0 0 0
2.13951 -0.363721 4.97904 0 0 0
2.13951 -0.363721 4.97904 0 0 0
2.145 -0.253881 4.94006 0 0 0
2.13409 -0.215393 4.90957 0 0 0
2.13902 0.140113 4.90988 0 0 0
2.14325 0.0633319 4.91952 0 0 0
2.13869 0.23439 4.89149 0 0 0
2.15399 0.108358 4.92181 0 0 0
2.1817 0.011899 4.9337 0 0 0
2.17538 -0.104935 4.91727 0 0 0
2.17639 0.0508875 4.9058 0 0 0
2.1925 -0.00991832 4.89131 0 0 0
2.19813 -0.115319 4.90103 0 0 0
2.19781 0.0420791 4.86861 0 0 0
2.20683 0.104143 4.88732 0 0 0
2.27041 -0.377043 5.0184 0 0 0
2.19809 0.690888 4.85375 0 0 0
2.21257 0.143074 4.88507 0 0 0
2.19623 0.908391 4.84165 0 0 0
2.23298 -0.0878094 4.92276 0 0 0
2.2344 0.0764105 4.92251 0 0 0
2.21068 0.262506 4.86694 0 0 0
2.18616 0.930622 4.80876 0 0 0
2.20262 0.895695 4.83745 0 0 0
2.206 0.442651 4.8423 0 0 0
2.23306 0.0381518 4.89653 0 0 0
2.20778 0.503078 4.84063 0 0 0
2.21307 0.374697 4.84986 0 0 0
2.20908 0.527945 4.83056 0 0 0
2.24394 0.118868 4.90359 0 0 0
2.20732 0.798591 4.82332 0 0 0
2.22119 0.360409 4.85311 0 0 0
2.25581 0.147609 4.90388 0 0 0
2.25027 0.0530755 4.89107 0 0 0
2.25027 0.0530755 4.89107 0 0 0
2.26715 -0.125272 4.91943 0 0 0
2.26715 -0.125272 4.91943 0 0 0
2.17129 1.1968 4.6995 0 0 0
2.2617 0.0681592 4.88939 0 0 0
2.2617 0.0681592 4.88939 0 0 0
2.22882 0.890672 4.81005 0 0 0
2.28438 -0.0640854 4.92223 0 0 0
2.28438 -0.0640854 4.92223 0 0 0
2.28546 0.148313 4.92264 0 0 0
2.22931 0.855918 4.79113 0 0 0
2.20813 0.925746 4.74459 0 0 0
2.20256 0.936662 4.72253 0 0 0
2.2066 0.96996 4.73073 0 0 0
2.22183 0.963978 4.75031 0 0 0
2.19947 0.953477 4.70153 0 0 0
2.23933 0.829113 4.78655 0 0 0
2.28962 0.378693 4.89265 0 0 0
2.3125 0.149582 4.93892 0 0 0
2.20125 1.18581 4.68218 0 0 0
2.33832 0.150677 4.94847 0 0 0
2.20132 1.14796 4.65688 0 0 0
2.23472 0.911525 4.72292 0 0 0
2.39744 -0.263245 5.0657 0 0 0
2.21182 1.16683 4.64507 0 0 0
2.37616 0.0878118 4.96391 0 0 0
2.4016 -0.149867 5.00715 0 0 0
2.38122 0.638197 4.93506 0 0 0
2.40637 0.0799645 4.9736 0 0 0
2.36515 0.800934 4.88177 0 0 0
2.44858 -0.120204 5.03469 0 0 0
2.45978 -0.204375 5.05471 0 0 0
2.44235 0.40284 4.9837 0 0 0
2.47404 -0.150325 5.03301 0 0 0
2.44968 0.541738 4.96583 0 0 0
2.44654 0.584427 4.95929 0 0 0
2.42434 0.801835 4.9081 0 0 0
2.45332 0.722369 4.94075 0 0 0
2.46653 1.19858 4.80256 0 0 0
2.56428 0.994473 4.88349 0 0 0
3.0021 1.01913 5.40756 0 0 0
3.02183 1.02028 5.40403 0 0 0
3.02046 1.26121 5.35022 0 0 0
4.29867 -3.18558 7.61214 0 0 0
3.01982 1.21239 5.34601 0 0 0
3.01982 1.21239 5.34601 0 0 0
4.34025 -3.09689 7.63111 0 0 0
4.36038 -3.17147 7.65239 0 0 0
4.34929 -3.17572 7.60533 0 0 0
4.41824 -2.69892 7.63436 0 0 0
4.4002 -3.17724 7.58936 0 0 0
4.36925 -3.2197 7.476 0 0 0
4.36925 -3.2197 7.476 0 0 0
4.50232 -3.14655 7.6627 0 0 0
4.44808 -2.53473 7.37947 0 0 0
4.44808 -2.53473 7.37947 0 0 0
4.46807 -2.28947 7.34074 0 0 0
4.4521 -2.08688 7.3069 0 0 0
4.48845 -2.55138 7.35527 0 0 0
4.47131 -2.19944 7.30328 0 0 0
4.47131 -2.19944 7.30328 0 0 0
4.57691 -2.37673 7.42058 0 0 0
4.57094 -2.4769 7.34601 0 0 0
3.75368 1.11255 5.9584 0 0 0
4.57494 -1.57391 7.22333 0 0 0
4.57703 -1.57218 7.20396 0 0 0
-1.55127 -0.0780547 2.82551 88 86 74
-1.5372 -0.0155977 2.8357 108 112 115
-1.49388 0.163967 2.81376 125 122 115
-1.48883 0.170634 2.8148 122 122 112
-1.46847 0.364261 2.78732 212 212 210
-1.4671 0.0206031 2.83272 87 87 85
-1.45402 -0.00519708 2.84043 24 24 22
-1.49103 -0.0109542 2.95799 30 32 29
-1.43117 0.160759 2.84085 157 152 148
-1.42744 -0.0631258 2.83534 44 45 39
-1.42095 0.0968636 2.85223 120 124 127
-1.30126 1.01714 2.6301 145 143 146
-1.41176 -0.0966573 2.85817 122 126 127
-1.40399 0.0982523 2.85868 127 133 133
-1.39381 0.060603 2.86988 12 17 11
-1.28859 0.823756 2.6607 213 214 209
-1.38825 0.0973443 2.86648 131 133 132
-1.38194 0.0150931 2.86914 25 27 24
-1.3282 0.74628 2.75978 108 105 96
-1.27985 0.814684 2.68636 128 119 112
-1.37678 0.0880992 2.92736 130 131 135
-1.35775 -0.0297783 2.88894 44 46 45
-1.35448 0.0326536 2.88306 33 34 29
-1.32742 0.251611 2.85614 15 18 11
-1.25268 0.816728 2.69594 178 173 170
-1.33778 0.128588 2.88738 176 176 176
-1.31773 0.317287 2.85182 157 159 158
-1.31323 0.316979 2.84608 160 162 161
-1.27323 0.747059 2.7879 210 209 205
-1.29627 0.395064 2.84099 221 221 219
-1.22363 0.874166 2.68334 215 214 209
-1.22504 0.826461 2.69112 223 224 219
-1.31699 0.192251 2.91845 221 221 219
-1.2498 0.759091 2.78262 214 213 208
-1.2276 -0.184111 3.07071 207 208 203
-1.20301 0.114733 3.02508 142 146 147
-1.16408 -0.190456 3.09635 202 198 189
-1.11544 -0.223555 3.10779 155 157 156
-1.09421 -0.17763 3.12676 118 112 100
-1.07714 -0.24627 3.10762 212 211 207
-1.02398 -0.183379 3.15606 210 207 200
-0.991602 -0.242084 3.14382 210 207 200
-0.984829 -0.174462 3.17451 209 209 199
-0.97581 -0.213999 3.17255 207 204 197
-0.975705 -0.2143 3.17238 207 204 197
-0.86144 0.169359 3.18123 194 194 194
-0.854 0.175337 3.18357 200 200 198
-0.855732 -0.163616 3.23861 152 151 149
-0.832145 0.155114 3.19326 178 178 178
-0.831884 0.155034 3.1928 178 178 178
-0.817225 -0.00614352 3.23619 27 29 24
-0.797489 -0.0492306 3.2387 40 42 37
-0.803618 -0.390431 3.28956 210 209 205
-0.786161 -0.23433 3.23638 211 210 206
-0.778054 0.128908 3.2124 147 147 147
-0.779168 -0.234504 3.24024 213 209 206
-0.773135 -0.249164 3.24257 208 207 203
-0.701042 -0.232931 3.24204 212 211 207
-0.253715 -1.41056 3.43977 30 23 15
-0.133903 -1.16906 3.82888 63 62 57
-0.0888318 -1.20958 3.86571 81 78 71
-0.0589562 -1.2389 3.89193 56 63 56
-0.0190794 -1.20244 3.90261 68 68 58
0.00472696 -1.20818 3.92225 62 65 58
0.0165431 -1.16372 3.94582 68 69 63
0.0319042 -1.2122 3.93601 58 51 45
0.032618 -1.25015 3.94425 73 70 65
0.05472 -1.2106 3.94937 71 72 66
0.0549129 -1.23132 3.95377 70 73 64
0.0542784 -0.888393 3.86038 203 202 197
0.224852 -1.03524 4.05551 169 162 152
0.257877 -1.05358 4.05142 165 158 148
0.271842 -1.51562 3.97823 103 98 94
0.296073 -1.23769 4.097 160 153 143
0.294921 -0.961807 4.0449 145 137 126
0.294921 -0.961807 4.0449 145 137 126
0.303016 -1.2436 4.09837 159 150 141
0.322979 -1.2005 4.10199 154 149 143
0.317577 -1.0741 4.01195 146 141 135
0.331501 -1.27421 4.12056 148 148 140
0.331501 -1.27421 4.12056 148 148 140
0.337383 -1.0267 4.04474 104 94 84
0.360864 -1.50376 4.03394 47 39 36
0.376528 -0.921291 4.0663 140 143 136
0.38799 -1.29808 4.15369 126 122 113
0.38799 -1.29808 4.15369 126 122 113
0.381519 -0.971776 4.0673 114 115 107
0.391153 -1.27509 4.15758 103 104 98
0.390833 -1.51173 4.0472 28 30 25
0.399277 -1.15132 4.12644 114 115 109
0.408175 -1.23712 4.15906 119 116 109
0.408175 -1.23712 4.15906 119 116 109
0.42372 -0.938714 4.09819 122 121 116
0.42372 -0.938714 4.09819 122 121 116
0.425531 -1.58648 4.03256 64 65 60
0.425531 -1.58648 4.03256 64 65 60
0.444214 -1.50197 4.07992 120 119 114
0.450726 -1.58606 4.04711 58 60 57
0.450726 -1.58606 4.04711 58 60 57
0.480277 -1.52785 4.10955 148 149 141
0.480277 -1.52785 4.10955 148 149 141
0.523176 -1.5029 4.12934 102 103 95
0.5267 -1.52297 4.12476 87 88 80
0.557308 -1.02191 4.2184 118 117 112
0.571702 -1.50221 4.15619 96 97 91
0.580682 -1.58368 4.12319 45 49 48
0.617161 -1.17606 4.27103 102 103 97
0.638819 -1.27335 4.2972 124 121 112
0.638819 -1.27335 4.2972 124 121 112
0.641389 -1.31626 4.30361 113 114 108
0.646906 -1.31672 4.31067 121 122 116
0.672977 -1.19428 4.30209 110 107 100
0.679344 -1.21367 4.31256 113 115 110
0.680052 -1.18736 4.31002 132 129 122
0.687875 -1.28763 4.3299 129 130 124
0.773148 -0.957375 4.37199 115 105 95
0.786625 -1.27414 4.3834 119 109 99
0.781981 0.527796 4.35733 133 109 85
0.78615 -0.89434 4.32364 128 122 110
0.796663 -1.25788 4.38064 118 109 100
0.804897 -1.26408 4.39241 119 111 100
0.789684 -0.752592 4.30172 128 122 110
0.805783 -1.19678 4.38179 107 100 90
0.805783 -1.19678 4.38179 107 100 90
0.834416 -0.989576 4.37816 108 99 90
0.907117 -0.26021 4.25704 101 94 86
0.936203 -0.260491 4.29287 0 0 0
0.965559 -0.627447 4.39423 0 0 0
0.956584 -1.61116 4.24005 0 0 0
1.03292 -1.05365 4.42248 0 0 0
1.01769 0.0373019 4.31205 0 0 0
1.19145 -1.39889 4.29421 0 0 0
1.22203 -1.38105 4.30998 0 0 0
1.32306 -0.994527 4.3529 0 0 0
1.4626 -1.49787 4.4902 0 0 0
1.44301 -1.37064 4.42643 0 0 0
1.50093 -1.34517 4.44931 0 0 0
1.47525 -1.51489 4.34132 0 0 0
1.47209 -1.5226 4.33189 0 0 0
1.53218 -1.36552 4.47044 0 0 0
1.5198 -1.51128 4.36047 0 0 0
1.75833 -0.0961464 4.74969 0 0 0
1.76063 -0.112061 4.73972 0 0 0
1.77183 0.197529 4.72143 0 0 0
2.09668 -0.113454 5.55742 0 0 0
1.84109 -0.185605 4.76716 0 0 0
1.91835 -0.117401 4.83337 0 0 0
1.9311 -0.135069 4.81947 0 0 0
1.96182 -0.094221 4.856 0 0 0
2.04469 -0.0868362 4.90042 0 0 0
2.0457 -0.0993285 4.89772 0 0 0
2.06711 0.00338428 4.89233 0 0 0
2.06332 0.00296053 4.87436 0 0 0
2.08033 -0.188753 4.8954 0 0 0
2.08033 -0.188753 4.8954 0 0 0
2.11159 -0.380793 4.96054 0 0 0
2.10086 -0.0421679 4.91283 0 0 0
2.21397 -0.0558943 4.90802 0 0 0
2.21459 -0.0667077 4.90924 0 0 0
2.25759 -0.376195 4.98999 0 0 0
2.40983 -0.304882 5.05686 0 0 0
2.39967 -0.25858 5.03008 0 0 0
-1.47049 0.36371 2.78927 200 199 195
-1.45501 -0.00605934 2.84113 179 180 175
-1.25246 0.836998 2.72522 45 47 42
-1.20888 0.115369 3.03312 21 23 18
-1.09746 -0.219832 3.0525 212 209 200
-0.836262 -0.026506 3.24417 209 206 199
-0.809344 -0.0477487 3.26074 210 209 204
-0.355507 -1.53849 3.28659 71 54 46
-0.130821 -1.58821 3.40784 109 105 94
0.257862 -1.05242 4.04859 148 142 128
0.258173 -1.05223 4.04684 169 163 149
0.303756 -1.00536 4.0384 138 134 125
0.940369 -1.49662 4.28104 105 101 90
0.920636 -1.5824 4.24005 113 109 100
-0.436453 0.459415 3.00705 227 227 225
-0.421096 0.461331 3.01508 226 227 222
-0.38821 0.462418 3.033 227 228 223
-0.329452 0.553151 3.05557 220 221 216
-0.329452 0.553151 3.05557 220 221 216
-0.304951 0.499128 3.07293 233 232 227
-0.260603 0.55757 3.09385 152 149 144
-0.233235 0.4605 3.11986 162 163 157
-0.181752 0.551218 3.13737 161 162 154
0.258213 -1.5311 3.97651 113 109 98
0.285 -1.56802 3.98531 86 85 80
0.305439 -1.52976 4.00213 82 81 77
0.34232 -1.50568 4.02439 44 46 43
0.522146 -1.33254 4.21044 107 106 102
0.537048 -1.58699 4.10164 48 53 49
0.676246 -1.49861 4.2085 91 91 83
0.734721 -1.37623 4.32808 102 95 85
0.797288 -1.22932 4.34876 118 110 99
1.47348 0.517936 4.11055 0 0 0
-1.36979 0.00415963 2.85265 208 205 196
-1.53097 -0.0637826 2.80302 72 67 61
-1.53428 -0.232244 2.81766 73 71 59
-1.35616 -0.203318 2.9322 214 216 215
-1.15581 -0.178916 3.10488 184 182 183
-1.14341 -0.182604 3.11328 186 184 185
-3.19803 -2.47534 9.19249 214 210 207
-3.19803 -2.47534 9.19249 214 210 207
-3.0152 -2.77229 9.22677 214 215 209
-2.77194 -3.04808 9.28749 83 83 75
-0.23196 -1.25584 3.46267 71 71 63
-0.135398 -1.34069 3.8412 74 75 70
-0.0130091 -1.30781 3.90624 87 80 72
-0.0123048 -1.30771 3.90577 87 80 72
-0.0106075 -1.33514 3.9056 92 88 79
0.00489808 -1.32209 3.91469 68 67 62
0.0465937 -1.26154 3.93156 162 154 151
0.0558528 -1.26537 3.93668 66 69 60
0.106516 -1.15624 3.96144 205 206 200
0.19844 -1.26556 4.01377 115 102 94
0.19844 -1.26556 4.01377 115 102 94
0.306878 -1.14622 4.07457 211 210 206
0.377727 -0.961266 4.04195 21 22 17
0.373473 -1.18281 4.10214 188 182 170
0.47872 -1.49966 4.10089 125 126 120
0.508425 -1.49902 4.11863 111 112 106
0.575293 -1.20164 3.74591 142 142 132
0.533648 -1.49922 4.13255 108 109 103
0.569914 -1.52272 4.15075 116 117 111
0.607874 -1.26144 4.24561 135 130 124
0.61868 -1.49895 4.17904 110 111 105
0.639086 -1.20917 4.254 115 103 91
0.642609 -1.27385 4.26575 141 142 136
0.678279 -1.49675 4.21224 125 121 110
0.804681 -1.22552 4.35076 132 124 113
1.31501 -1.91546 4.51125 0 0 0
1.33384 -1.91436 4.52222 0 0 0
1.39526 -1.9286 4.55157 0 0 0
1.41996 -1.93439 4.56379 0 0 0
1.76469 -0.16561 4.71035 0 0 0
1.87965 -0.169531 4.77013 0 0 0
2.04794 -0.114796 4.89444 0 0 0
2.11023 -0.0393698 4.92198 0 0 0
2.17913 0.22922 4.90351 0 0 0
2.22838 -0.118293 4.93361 0 0 0
2.2643 -0.164286 4.93915 0 0 0
2.30523 -0.0336279 4.94628 0 0 0
2.35998 0.119374 4.97141 0 0 0
2.37484 0.126656 4.97803 0 0 0
2.37621 0.102706 4.97917 0 0 0
2.42887 0.21166 5.0122 0 0 0
2.44496 0.0502197 5.02739 0 0 0
-0.576606 0.641708 5.36379 177 176 171
0.0906811 -1.50921 3.87779 107 103 94
0.112421 -1.597 3.86077 106 101 95
0.197449 -1.55332 3.99216 120 117 108
0.203281 -1.51644 3.93546 116 112 103
0.227984 -1.56805 3.94901 115 111 102
0.282392 -1.50508 3.98761 81 82 76
0.32943 -1.50555 4.01247 43 43 41
0.536955 -1.58664 4.10232 48 53 49
0.689536 -1.50621 4.21567 97 98 92
1.35333 -1.61943 4.27285 0 0 0
1.45359 -1.41457 4.47029 0 0 0
1.41989 -1.59062 4.32985 0 0 0
2.05292 -0.112697 4.9035 0 0 0
-1.03178 -0.186537 3.15779 217 214 207
0.334398 -1.49548 3.9879 32 34 31
0.0055029 -1.41207 3.99597 87 88 80
0.242461 -1.52586 4.04317 71 72 66
0.272038 -1.52035 4.04582 44 47 40
0.337805 -1.51282 4.05324 162 158 146
1.53877 -1.50496 4.35346 0 0 0
-0.355542 -1.41656 3.68773 49 41 30
-0.408073 -1.02575 3.70349 203 202 198
-0.371874 -1.08632 3.69169 13 24 16
-0.366713 -1.15737 3.69723 207 207 199
-0.366713 -1.15737 3.69723 207 207 199
-0.35839 -1.18927 3.69683 213 210 205
-0.398282 -1.02041 3.71002 205 204 200
-0.35007 -0.958381 3.69123 212 211 206
-0.35007 -0.958381 3.69123 212 211 206
-0.362944 -1.11676 3.72301 167 167 157
-0.36563 -1.10222 3.72402 106 119 109
-0.300465 -1.35647 3.72466 150 147 140
-0.300465 -1.35647 3.72466 150 147 140
-0.303483 -1.4064 3.75891 48 51 42
-0.295654 -1.40123 3.7675 44 25 21
-0.295951 -1.11007 3.75321 168 169 161
-0.285467 -1.0804 3.74652 36 44 33
-0.294939 -1.08396 3.75279 31 39 28
-0.289115 -1.40694 3.77258 36 16 9
-0.260527 -1.17092 3.74364 211 210 205
-0.346432 -0.767374 3.7684 29 31 18
-0.294635 -1.09852 3.7596 134 142 129
-0.26628 -1.15475 3.75641 208 207 202
-0.26628 -1.15475 3.75641 208 207 202
-0.257189 -1.16323 3.7542 212 211 206
-0.261073 -1.42869 3.77985 95 97 86
-0.258009 -1.41932 3.78398 187 174 165
-0.321788 -0.962202 3.79844 215 212 205
-0.195108 -1.51911 3.76483 17 20 13
-0.31035 -1.10049 3.80446 40 53 44
-0.25149 -1.43379 3.79311 192 183 174
-0.297254 -1.40638 3.81752 177 180 173
-0.296672 -1.1112 3.80421 141 143 132
-0.297474 -1.39543 3.8227 153 155 150
-0.297474 -1.39543 3.8227 153 155 150
-0.275814 -1.16444 3.79961 209 208 203
-0.280871 -1.14302 3.80138 201 201 193
-0.287452 -1.40708 3.82534 179 179 171
-0.287452 -1.40708 3.82534 179 179 171
-0.256548 -1.0351 3.83404 199 198 194
-0.256548 -1.0351 3.83404 199 198 194
-0.240474 -1.3406 3.84645 184 183 178
-0.158514 -1.50158 3.815 36 27 20
-0.230556 -1.88803 3.89352 40 42 31
-0.189915 -1.38541 3.87284 184 184 174
-0.175056 -1.25834 3.87932 204 201 196
-0.167343 -1.3494 3.88452 143 125 111
-0.159037 -1.2012 3.87897 211 210 205
-0.0412383 -1.58573 3.84052 193 190 183
-0.152755 -1.25841 3.88516 200 199 194
-0.00786692 -1.51761 3.85092 190 190 182
-0.097343 -1.34607 3.90676 184 184 176
0.0122035 -1.51669 3.85795 191 191 183
-0.065072 -1.25555 3.9252 198 197 193
-0.0656268 -1.33136 3.93055 121 121 111
-0.0506605 -1.22738 3.93138 206 206 198
-0.0488517 -1.28958 3.93686 150 147 142
-0.0430126 -1.22008 3.9352 208 207 202
0.0773529 -1.51398 3.89206 195 192 183
-0.0355569 -1.17024 3.94927 210 209 204
-0.0202804 -1.30221 3.94921 167 172 165
-0.0102421 -1.26685 3.94816 186 182 179
-0.00681406 -1.25512 3.95183 191 190 186
-0.000816578 -1.34574 3.95797 184 184 176
0.0136512 -1.27133 3.96304 173 169 166
0.0159235 -1.32015 3.96585 188 185 176
0.0160131 -1.19344 3.95999 210 209 204
0.0348817 -1.04728 3.95124 23 18 14
0.141409 -1.5447 3.91841 194 194 186
0.0362367 -1.27447 3.97464 161 160 158
0.131133 -1.91706 4.04585 177 170 160
0.110064 -1.04041 3.99734 40 25 22
0.110064 -1.04041 3.99734 40 25 22
0.149802 -1.34828 4.0297 184 181 172
0.179197 -1.90847 4.06952 174 174 164
0.253301 -1.31204 4.06763 186 186 174
0.267521 -0.962972 4.03867 202 201 197
0.27538 -0.891769 4.05081 211 210 205
0.301263 -0.985852 4.05032 188 189 184
0.287488 -1.15039 4.08894 213 210 205
0.294939 -1.30323 4.09697 187 187 179
0.301586 -1.20059 4.09319 202 201 196
0.307291 -1.282 4.10221 184 185 177
0.312011 -1.32366 4.10595 188 185 178
0.331341 -0.988026 4.06691 183 182 180
0.332854 -1.17387 4.105 207 206 202
0.333723 -1.32956 4.11777 181 181 173
0.353589 -1.19075 4.11732 202 201 197
0.372351 -1.20528 4.12318 196 195 191
0.393262 -1.0385 4.09487 165 168 159
0.373949 -1.25235 4.13275 185 186 178
0.373949 -1.25235 4.13275 185 186 178
0.37855 -1.29448 4.13768 190 187 180
0.38847 -1.04245 4.1272 159 160 152
0.407364 -0.987314 4.11237 177 176 172
0.414703 -1.07044 4.14172 198 198 190
0.421542 -1.06823 4.13871 199 199 191
0.410152 -1.05278 4.14613 175 176 168
0.426246 -1.03004 4.15421 125 135 126
0.571019 -1.5505 4.11823 188 187 182
0.616979 -1.49212 4.1627 72 78 64
0.67715 -1.50823 4.17549 65 69 55
0.599714 -1.34915 4.24287 32 34 21
0.605013 -1.28938 4.24187 33 36 25
0.621386 -1.28915 4.25305 25 27 16
0.637786 -1.23269 4.25366 197 172 165
0.649725 -1.28909 4.27193 21 22 14
0.660588 -1.31206 4.27381 21 24 17
0.662277 -1.32188 4.28245 21 24 15
0.675926 -1.21561 4.27296 52 29 23
0.671261 -1.07407 4.26645 211 208 203
0.772661 -1.51128 4.22633 89 80 65
0.682761 -1.17676 4.27256 188 187 182
0.695659 -1.30244 4.2907 16 19 12
0.695659 -1.30244 4.2907 16 19 12
0.706222 -1.23037 4.28815 52 38 25
0.702851 -1.26995 4.29535 26 29 20
0.706517 -1.24051 4.29501 43 40 25
0.709085 -1.27799 4.29636 30 34 20
0.725298 -1.25409 4.3013 22 28 16
0.81566 -1.47955 4.25371 162 159 150
0.844697 -1.47637 4.26984 159 155 146
0.761984 -0.86936 4.28505 210 207 202
0.812988 -1.24987 4.34929 124 124 116
0.829563 -1.01919 4.32607 125 118 108
0.835026 -0.968614 4.32618 144 137 127
0.834199 -0.978671 4.33343 120 117 110
0.838125 -0.978424 4.33145 116 113 106
0.898899 -0.98427 4.35308 130 132 121
1.36154 -1.80846 4.44676 101 103 92
1.44298 -1.18168 4.46081 65 61 50
1.54077 -0.92405 4.63362 117 107 95
1.56104 -1.02555 4.65505 113 103 91
1.7171 -1.56866 4.61969 75 75 65
1.5974 -0.111008 4.61691 121 113 102
1.71692 -1.47705 4.67223 83 71 57
1.77212 -1.5372 4.6724 69 71 60
1.70281 -0.150035 4.66439 0 0 0
1.71577 -0.164658 4.66013 0 0 0
1.74836 -0.192781 4.68419 0 0 0
1.76833 -0.148278 4.69564 0 0 0
1.84795 -0.18663 4.7288 0 0 0
1.90691 -0.16916 4.76538 0 0 0
1.92178 -0.116236 4.80423 0 0 0
1.9306 -0.100201 4.81572 0 0 0
1.9306 -0.100201 4.81572 0 0 0
1.96073 -0.140854 4.80953 0 0 0
2.04436 -0.0996352 4.88739 0 0 0
2.05242 -0.0999485 4.89202 0 0 0
2.05786 -0.100415 4.89745 0 0 0
2.06345 -0.091539 4.89981 0 0 0
2.06917 -0.0994916 4.90462 0 0 0
2.06948 -0.0604541 4.89892 0 0 0
2.07895 0.198405 4.87905 0 0 0
2.07895 0.198405 4.87905 0 0 0
2.08959 0.0631849 4.89125 0 0 0
2.10393 -0.0997651 4.92161 0 0 0
2.10393 -0.0997651 4.92161 0 0 0
2.09681 0.0669357 4.90125 0 0 0
2.09947 -0.00081221 4.9105 0 0 0
2.10962 -0.0995938 4.92883 0 0 0
2.11772 -0.0992574 4.9329 0 0 0
2.11772 -0.0992574 4.9329 0 0 0
2.11877 -0.295698 4.97494 0 0 0
2.12571 0.213923 4.89222 0 0 0
2.13421 0.135968 4.90853 0 0 0
2.22541 -0.178383 4.89107 0 0 0
2.21991 -0.127877 4.92619 0 0 0
2.23191 -0.164588 4.91232 0 0 0
2.18419 0.476862 4.88735 0 0 0
2.24954 -0.174382 4.9064 0 0 0
2.24484 0.0710528 4.89794 0 0 0
2.23832 0.490908 4.85573 0 0 0
2.25519 -0.379551 5.02979 0 0 0
2.27957 -0.212967 4.93791 0 0 0
2.27564 0.0636714 4.9119 0 0 0
2.27457 -0.00432998 4.9361 0 0 0
2.26738 -0.355824 5.03797 0 0 0
2.2783 0.118633 4.92713 0 0 0
2.30039 0.135921 4.93846 0 0 0
2.30039 0.135921 4.93846 0 0 0
2.30474 0.119267 4.94388 0 0 0
2.32741 -0.0413356 4.95867 0 0 0
2.32613 0.000709894 4.95363 0 0 0
2.27648 0.12626 5.04692 0 0 0
2.31784 0.127657 4.95207 0 0 0
2.31486 0.144646 4.95469 0 0 0
2.33345 -0.00443813 4.96305 0 0 0
2.35581 -0.0695507 4.98107 0 0 0
2.34447 0.128826 4.96904 0 0 0
2.36723 -0.115471 5.00346 0 0 0
2.36723 -0.115471 5.00346 0 0 0
2.36883 -0.0512516 5.00591 0 0 0
2.37014 0.0823645 4.98257 0 0 0
2.38325 -0.142377 5.02325 0 0 0
2.38664 -0.150183 5.02124 0 0 0
2.402 -0.172184 5.01169 0 0 0
2.36666 0.439237 4.94724 0 0 0
2.3898 0.0753971 5.00359 0 0 0
2.41107 -0.147098 5.03713 0 0 0
2.39256 0.139581 5.01147 0 0 0
2.39871 0.651503 4.93812 0 0 0
2.40712 0.596351 4.94971 0 0 0
